<svg width="3164" height="3164" viewBox="0 0 3164 3164" fill="none" xmlns="http://www.w3.org/2000/svg">
<path d="M1018.92 1545.62C1012.95 1493.2 1023.73 1440.24 1049.7 1394.32L1147.65 1221.21C1173.63 1175.29 1213.47 1138.78 1261.48 1116.9L1442.47 1034.42C1490.48 1012.54 1544.18 1006.42 1595.87 1016.94L1790.78 1056.59C1842.48 1067.11 1889.52 1093.73 1925.16 1132.62L2059.54 1279.27C2095.18 1318.16 2117.59 1367.34 2123.56 1419.76L2146.08 1617.38C2152.05 1669.8 2141.27 1722.76 2115.3 1768.68L2017.35 1941.79C1991.37 1987.71 1951.53 2024.22 1903.52 2046.1L1722.53 2128.58C1674.52 2150.46 1620.82 2156.58 1569.13 2146.06L1374.22 2106.41C1322.52 2095.89 1275.48 2069.27 1239.84 2030.38L1105.47 1883.73C1069.82 1844.84 1047.41 1795.66 1041.44 1743.24L1018.92 1545.62Z" fill="#0F1418"/>
<circle cx="1432.49" cy="1576.49" r="9.5" transform="rotate(-78.5 1432.49 1576.49)" fill="#8C0727"/>
<circle cx="1619.31" cy="2012.49" r="9.5" transform="rotate(-78.5 1619.31 2012.49)" fill="#8C0727"/>
<circle cx="1920.18" cy="1887.98" r="9.5" transform="rotate(-78.5 1920.18 1887.98)" fill="#8C0727"/>
<circle cx="1838.57" cy="1185.6" r="9.5" transform="rotate(-78.5 1838.57 1185.6)" fill="#8C0727"/>
<circle cx="1389.93" cy="1339.25" r="9.5" transform="rotate(-78.5 1389.93 1339.25)" fill="#8C0727"/>
<circle cx="1359.48" cy="1945.34" r="9.5" transform="rotate(-78.5 1359.48 1945.34)" fill="#8C0727"/>
<circle cx="1180.94" cy="1674.3" r="9.5" transform="rotate(-78.5 1180.94 1674.3)" fill="#8C0727"/>
<circle cx="1598.74" cy="1712.36" r="9.5" transform="rotate(-78.5 1598.74 1712.36)" fill="#8C0727"/>
<circle cx="1859.84" cy="1632.82" r="9.5" transform="rotate(-78.5 1859.84 1632.82)" fill="#8C0727"/>
<circle cx="1716.19" cy="1185.2" r="9.5" transform="rotate(-78.5 1716.19 1185.2)" fill="#8C0727"/>
<circle cx="1217.58" cy="1328.67" r="9.5" transform="rotate(-78.5 1217.58 1328.67)" fill="#8C0727"/>
<circle cx="1723.32" cy="1400.95" r="9.5" transform="rotate(-78.5 1723.32 1400.95)" fill="#8C0727"/>
<path d="M1361.4 674.285L1690.65 654.147C1777.51 648.835 1863.81 671.155 1937.2 717.909L2215.41 895.148C2288.8 941.902 2345.5 1010.69 2377.39 1091.65L2498.29 1398.57C2530.18 1479.53 2535.63 1568.51 2513.84 1652.75L2431.25 1972.12C2409.46 2056.36 2361.56 2131.55 2294.42 2186.9L2039.88 2396.72C1972.74 2452.07 1889.79 2484.74 1802.94 2490.05L1473.68 2510.19C1386.83 2515.5 1300.52 2493.18 1227.14 2446.43L948.925 2269.19C875.537 2222.44 818.833 2153.65 786.942 2072.69L666.043 1765.77C634.152 1684.81 628.71 1595.83 650.497 1511.58L733.09 1192.22C754.877 1107.98 802.775 1032.79 869.919 977.442L1124.46 767.619C1191.6 712.269 1274.54 679.597 1361.4 674.285Z" stroke="#8C0727" stroke-width="4.51219"/>
<path d="M845.562 1334.85L984.425 1089.41C1021.06 1024.66 1077.24 973.175 1144.93 942.327L1401.54 825.384C1469.23 794.535 1544.95 785.908 1617.85 800.739L1894.18 856.96C1967.08 871.791 2033.41 909.318 2083.66 964.163L2274.18 1172.07C2324.44 1226.92 2356.04 1296.27 2364.46 1370.18L2396.38 1650.36C2404.8 1724.27 2389.61 1798.95 2352.98 1863.7L2214.12 2109.14C2177.49 2173.88 2121.3 2225.37 2053.61 2256.22L1797 2373.16C1729.31 2404.01 1653.59 2412.63 1580.7 2397.8L1304.36 2341.58C1231.46 2326.75 1165.13 2289.22 1114.88 2234.38L924.362 2026.47C874.106 1971.62 842.503 1902.28 834.082 1828.37L802.158 1548.18C793.737 1474.27 808.931 1399.59 845.562 1334.85Z" stroke="#8C0727" stroke-width="3.85737"/>
</svg>
