<svg width="149" height="149" viewBox="0 0 149 149" fill="none" xmlns="http://www.w3.org/2000/svg">
<g filter="url(#filter0_d)">
<circle cx="74.5" cy="70.5" r="70.5" fill="#FF002B"/>
<circle cx="75" cy="71" r="65.5" fill="#FF002B" stroke="#0C1014" stroke-width="3"/>
<circle cx="75" cy="71" r="49" stroke="#0C1014" stroke-width="2"/>
<g filter="url(#filter1_d)">
<path d="M22.333 60.7037C21.4839 62.1748 20.7529 63.7372 20.14 65.3909C19.5399 67.0266 19.0746 68.7587 18.7441 70.5874C18.411 72.4006 18.2447 74.3128 18.2454 76.3242C18.2435 78.3201 18.4264 80.4279 18.7942 82.6476C18.9679 83.6958 19.189 84.7916 19.4577 85.935C19.7237 87.0629 20.0412 88.1665 20.4101 89.2457C20.7918 90.3069 21.2275 91.3117 21.7172 92.2601C22.2198 93.1904 22.7957 93.9898 23.445 94.6583C24.0943 95.3268 24.8246 95.8156 25.636 96.1246C26.45 96.449 27.358 96.5282 28.3599 96.3622C29.2848 96.209 30.0507 95.7653 30.6577 95.0313C31.2825 94.31 31.783 93.4115 32.1591 92.3355C31.4972 91.3999 30.8894 90.4078 30.3355 89.3592C29.7971 88.3081 29.3126 87.248 28.8821 86.179C28.4644 85.092 28.1033 84.0115 27.7986 82.9375C27.5094 81.8609 27.2843 80.8371 27.1234 79.8659C27.0493 79.4189 26.9638 78.855 26.8669 78.1742C26.7853 77.4908 26.7295 76.7715 26.6994 76.0163C26.6667 75.2456 26.6726 74.4686 26.717 73.6852C26.7769 72.8992 26.9124 72.1878 27.1236 71.5509C27.3323 70.8987 27.6295 70.3505 28.0153 69.9065C28.4139 69.4445 28.9446 69.1586 29.6074 69.0488C30.2086 68.9492 30.7556 69.0486 31.2486 69.347C31.7569 69.6429 32.2137 70.0582 32.6191 70.5929C33.0219 71.1122 33.3848 71.7252 33.7078 72.4319C34.0282 73.1232 34.3024 73.8221 34.5303 74.5287C34.7711 75.2174 34.9593 75.8752 35.0948 76.5021C35.2458 77.1264 35.3545 77.639 35.4209 78.0398C35.5665 78.9184 35.6632 79.8843 35.711 80.9376C35.7742 81.9882 35.7744 83.0889 35.7117 84.2397C35.6618 85.3724 35.5528 86.5308 35.3847 87.7149C35.214 88.8835 34.9753 90.0238 34.6686 91.1357C35.2511 91.7836 35.8619 92.3635 36.501 92.8752C37.1427 93.4024 37.8153 93.8295 38.5188 94.1564C39.2403 94.4962 39.9825 94.7216 40.7453 94.8328C41.5106 94.9594 42.3018 94.955 43.1188 94.8197C44.3674 94.6128 45.4377 94.19 46.3296 93.5512C47.2241 92.9279 47.9595 92.1566 48.5358 91.2376C49.1121 90.3185 49.5498 89.2799 49.8488 88.1217C50.1633 86.9609 50.3661 85.7474 50.4573 84.4811C50.5484 83.2148 50.5483 81.924 50.4571 80.6087C50.3659 79.2934 50.2168 78.0115 50.01 76.7629C49.7137 74.9748 49.2491 73.2224 48.6163 71.5059C47.9963 69.7714 47.2247 68.1254 46.3014 66.5679C45.391 64.9924 44.3328 63.5285 43.1268 62.1762C41.9362 60.8213 40.6132 59.623 39.1577 58.5813C37.7022 57.5396 36.1271 56.684 34.4324 56.0145C32.7531 55.3424 30.9682 54.8938 29.0779 54.6685L29.4484 54.0369C31.6548 54.1623 33.7286 54.5869 35.6699 55.3105C37.6112 56.0342 39.4084 56.9876 41.0615 58.1708C42.7301 59.3515 44.2405 60.7246 45.5927 62.2903C46.9603 63.8534 48.1583 65.5396 49.1867 67.349C50.2304 69.1558 51.0994 71.0549 51.7936 73.0463C52.5033 75.0352 53.0254 77.0393 53.36 79.0587C53.5668 80.3073 53.6812 81.6187 53.703 82.993C53.7377 84.3494 53.6529 85.7017 53.4487 87.0501C53.2419 88.3831 52.9003 89.6671 52.4239 90.9022C51.9655 92.1502 51.3441 93.2747 50.5597 94.2758C49.7778 95.2922 48.8111 96.1493 47.6597 96.8469C46.5262 97.5573 45.1887 98.0403 43.6472 98.2957C42.6452 98.4617 41.6819 98.4787 40.7573 98.3469C39.8327 98.215 38.9506 97.9572 38.111 97.5737C37.2739 97.2056 36.4742 96.7283 35.7119 96.1419C34.9649 95.553 34.2604 94.8857 33.5984 94.1401C33.2612 94.877 32.8842 95.5651 32.4675 96.2043C32.0507 96.8435 31.5814 97.4044 31.0595 97.8868C30.5401 98.3846 29.9669 98.7964 29.3398 99.122C28.7282 99.4451 28.0601 99.6666 27.3356 99.7867C26.1332 99.9859 25.0339 99.8988 24.0376 99.5254C23.0592 99.1648 22.1761 98.6143 21.3882 97.8737C20.6183 97.146 19.9371 96.2848 19.3447 95.2902C18.7702 94.3084 18.2703 93.2984 17.8449 92.2602C17.4349 91.2195 17.1006 90.2058 16.8421 89.2192C16.5811 88.2171 16.3892 87.3461 16.2666 86.6062C15.4672 81.7814 15.5358 77.177 16.4725 72.793C17.422 68.3911 19.2099 64.27 21.8362 60.4297L22.333 60.7037ZM28.5051 77.4513C28.6507 78.33 28.8515 79.2549 29.1074 80.2262C29.3788 81.1948 29.7002 82.179 30.0717 83.1786C30.4587 84.1756 30.8918 85.165 31.3712 86.1467C31.8481 87.113 32.3815 88.0382 32.9715 88.9224C33.0982 88.062 33.1825 87.1849 33.2245 86.291C33.2664 85.3971 33.2814 84.5315 33.2693 83.6941C33.2547 82.8412 33.2092 82.041 33.1329 81.2935C33.072 80.5433 32.993 79.8754 32.8959 79.2896C32.7478 78.3955 32.5496 77.486 32.3013 76.561C32.0684 75.6335 31.7956 74.7997 31.483 74.0596C31.1703 73.3195 30.8189 72.7284 30.4289 72.2862C30.0543 71.8414 29.6512 71.6548 29.2196 71.7263C28.9729 71.7672 28.7763 71.9185 28.6296 72.1804C28.4983 72.4397 28.4004 72.7569 28.3359 73.1319C28.2841 73.4889 28.2555 73.8896 28.2499 74.3339C28.2444 74.7783 28.253 75.2125 28.2757 75.6363C28.3112 76.0422 28.3481 76.4083 28.3864 76.7346C28.44 77.0583 28.4796 77.2972 28.5051 77.4513ZM69.7371 81.7143C69.4334 82.3665 69.0385 82.9941 68.5524 83.5973C68.0818 84.198 67.538 84.7395 66.921 85.2218C66.3195 85.7016 65.6666 86.1107 64.9625 86.4491C64.2737 86.7849 63.5594 87.0141 62.8195 87.1367C61.7713 87.3104 60.7694 87.3338 59.814 87.2071C58.8611 87.0957 57.9996 86.8187 57.2294 86.3762C56.4592 85.9336 55.8124 85.3281 55.2891 84.5595C54.7633 83.7756 54.4071 82.8209 54.2207 81.6956C54.0368 80.5858 54.0661 79.5198 54.3085 78.4976C54.5638 77.4576 54.9873 76.5242 55.5789 75.6977C56.1833 74.8531 56.9366 74.1423 57.8388 73.5652C58.741 72.9881 59.747 72.6076 60.8569 72.4237C61.381 72.3369 61.8793 72.3335 62.3519 72.4136C62.8373 72.4757 63.2739 72.6251 63.6615 72.8618C64.0466 73.0831 64.3661 73.3865 64.6201 73.772C64.8894 74.155 65.0688 74.6163 65.1582 75.1558C65.2655 75.8032 65.2289 76.3953 65.0486 76.932C64.8683 77.4687 64.593 77.9578 64.2226 78.3992C63.8523 78.8407 63.4101 79.2307 62.8961 79.5693C62.3974 79.9053 61.8603 80.2002 61.2846 80.454C60.7244 80.7052 60.1578 80.9178 59.5848 81.092C59.0247 81.2481 58.5057 81.3658 58.0278 81.445L57.4729 81.5369C57.9057 82.9065 58.6381 83.8858 59.6702 84.4751C60.7023 85.0643 62.0199 85.2261 63.623 84.9605C64.7637 84.7715 65.8404 84.3872 66.853 83.8076C67.8811 83.2255 68.7757 82.5071 69.5368 81.6525L69.7371 81.7143ZM57.2886 80.8547L57.8666 80.759C58.4216 80.667 58.9779 80.4877 59.5355 80.2211C60.0906 79.9391 60.5713 79.5902 60.9776 79.1745C61.3967 78.7407 61.7183 78.244 61.9423 77.6842C62.1663 77.1245 62.2247 76.5209 62.1174 75.8734C62.0127 75.2414 61.7871 74.7403 61.4407 74.3701C61.1097 73.9973 60.6128 73.8658 59.9499 73.9756C59.2717 74.088 58.7281 74.3919 58.3192 74.8873C57.9231 75.3647 57.6285 75.9282 57.4352 76.5779C57.2394 77.2122 57.127 77.8723 57.0981 78.5581C57.0821 79.226 57.1162 79.8142 57.2005 80.3229L57.2886 80.8547ZM118.581 88.0421C118.121 88.5143 117.594 88.8708 117 89.1117C116.422 89.3501 115.825 89.5203 115.208 89.6225C113.096 89.9724 111.163 89.968 109.409 89.6092C107.673 89.2634 106.09 88.6466 104.66 87.7591C103.245 86.8689 101.976 85.7567 100.852 84.4225C99.7439 83.0857 98.7551 81.6103 97.8858 79.9963C97.032 78.3798 96.2964 76.6644 95.6791 74.8503C95.0617 73.0362 94.5459 71.2132 94.1315 69.3813C93.7145 67.534 93.3823 65.7201 93.1349 63.9398C92.9003 62.1414 92.7336 60.4664 92.6349 58.9148C92.4264 59.377 92.1971 60.096 91.947 61.0719C91.6969 62.0478 91.4261 63.1855 91.1346 64.485C90.8585 65.7819 90.5784 67.1983 90.2944 68.7342C90.0078 70.2546 89.7238 71.7904 89.4423 73.3417C89.1763 74.8903 88.9141 76.4146 88.6558 77.9145C88.4103 79.3965 88.1907 80.7474 87.9969 81.9674C87.8185 83.1848 87.657 84.2173 87.5123 85.0648C87.3856 85.9252 87.3067 86.5005 87.2756 86.7908C87.2446 86.986 87.1981 87.2312 87.1362 87.5266C87.0897 87.8194 87.0111 88.1096 86.9003 88.3972C86.805 88.6822 86.6725 88.9338 86.5027 89.152C86.3484 89.3676 86.1479 89.4959 85.9013 89.5367C85.6238 89.5827 85.3734 89.5054 85.1502 89.3048C84.9294 89.1197 84.7319 88.8831 84.5575 88.5953C84.3985 88.3049 84.2549 88.0119 84.1267 87.7164C84.014 87.4183 83.9269 87.1793 83.8654 86.9994C83.6657 86.3673 83.4455 85.5644 83.205 84.5906C82.9644 83.6168 82.7137 82.5339 82.4529 81.3417C82.2074 80.147 81.9569 78.874 81.7013 77.5226C81.4432 76.1558 81.185 74.789 80.9269 73.4222C80.6816 72.0374 80.4414 70.6834 80.2064 69.3603C79.9842 68.0192 79.7696 66.7719 79.5626 65.6183C79.3685 64.4468 79.1949 63.3986 79.0416 62.4737C78.8884 61.5488 78.7658 60.8089 78.6738 60.2539C78.4624 61.0809 78.2161 62.1274 77.9349 63.3935C77.6691 64.6571 77.3813 66.0748 77.0716 67.6465C76.7773 69.2157 76.4713 70.9057 76.1536 72.7163C75.8488 74.509 75.5529 76.3557 75.2659 78.2562C74.9944 80.1543 74.7408 82.0652 74.5052 83.9889C74.2851 85.9101 74.1099 87.7685 73.9798 89.5639C73.9591 89.7257 73.928 89.9209 73.8867 90.1495C73.8634 90.3909 73.8144 90.6208 73.7397 90.839C73.665 91.0573 73.5543 91.2498 73.4077 91.4167C73.2791 91.5964 73.0992 91.7054 72.868 91.7437C72.6522 91.7794 72.448 91.742 72.2555 91.6313C72.0629 91.5207 71.8884 91.3754 71.7318 91.1954C71.5933 91.0283 71.4663 90.8356 71.3509 90.6171C71.2535 90.4115 71.1818 90.2175 71.1357 90.0351C70.9948 89.6625 70.8552 89.2501 70.7169 88.7979C70.594 88.3431 70.4686 87.8729 70.3407 87.3873C70.2307 86.9145 70.1206 86.4418 70.0106 85.969C69.9032 85.5117 69.8008 85.0852 69.7036 84.6895C69.1841 82.6057 68.7148 80.5375 68.2954 78.4846C67.8915 76.4293 67.5159 74.3534 67.1686 72.2569C66.8263 70.1914 66.5175 68.1361 66.242 66.0911C65.9819 64.0436 65.7489 61.9678 65.5428 59.8638C65.4895 59.255 65.4477 58.5729 65.4176 57.8177C65.385 57.047 65.4448 56.3086 65.597 55.6023C65.7646 54.8935 66.0658 54.2735 66.5004 53.7421C66.9504 53.2083 67.6225 52.8673 68.5165 52.7191C68.7323 52.6834 68.9263 52.7067 69.0983 52.7891C69.2678 52.856 69.3729 53.0128 69.4138 53.2594L69.4521 53.4907C69.4666 54.4385 69.4811 55.3864 69.4956 56.3343C69.5076 57.2668 69.5157 58.2236 69.5199 59.2049C69.6607 62.3491 69.8555 65.4845 70.1043 68.6109C70.3659 71.7193 70.7546 74.8304 71.2706 77.9442C71.4723 79.162 71.6947 80.3605 71.9376 81.5398C72.1805 82.7191 72.4632 83.8997 72.7857 85.0816C73.3028 81.6066 73.7514 78.5309 74.1316 75.8547C74.5271 73.1759 74.8749 70.8297 75.1748 68.8161C75.4746 66.8025 75.7216 65.0906 75.9156 63.6806C76.1225 62.2526 76.297 61.0595 76.4392 60.1015C76.5814 59.1435 76.6926 58.3807 76.7727 57.8131C76.8503 57.2301 76.9188 56.7832 76.9782 56.4724C77.035 56.1463 77.0751 55.91 77.0983 55.7636C77.1216 55.6172 77.1474 55.4862 77.1758 55.3706C77.3202 54.8082 77.5583 54.2857 77.8901 53.8031C78.2219 53.3205 78.7038 53.0268 79.3359 52.9221C79.7675 52.8506 80.1322 52.901 80.43 53.0734C80.7432 53.2433 81.0037 53.4773 81.2115 53.7754C81.4193 54.0736 81.5782 54.4116 81.6883 54.7893C81.8138 55.1644 81.9034 55.5139 81.957 55.8376C82.3221 58.232 82.6448 60.6097 82.9251 62.9706C83.2028 65.3161 83.4934 67.6437 83.7969 69.9532C84.1004 72.2628 84.4398 74.5506 84.8153 76.8166C85.2061 79.08 85.6882 81.3204 86.2615 83.5378C86.5767 81.6167 86.8636 79.8111 87.1221 78.1211C87.378 76.4157 87.6159 74.7925 87.8357 73.2515C88.0709 71.7079 88.2919 70.2221 88.4988 68.7941C88.7211 67.3635 88.9536 65.9471 89.1964 64.5448C89.4546 63.1399 89.7283 61.7325 90.0173 60.3226C90.3063 58.9126 90.643 57.4552 91.0271 55.9503C91.1199 55.6498 91.2281 55.3468 91.3517 55.0412C91.4727 54.7203 91.622 54.4263 91.7995 54.1593C91.977 53.8923 92.1917 53.6588 92.4436 53.4587C92.6955 53.2585 92.9911 53.1304 93.3302 53.0742C93.808 52.995 94.2112 53.0866 94.5398 53.3489C94.8683 53.6112 95.1377 53.9467 95.348 54.3553C95.5736 54.7614 95.7492 55.1996 95.8746 55.6698C95.9975 56.1245 96.0857 56.5138 96.1394 56.8375C96.3743 58.2557 96.5886 59.8356 96.7822 61.5774C96.9732 63.3038 97.1988 65.0957 97.459 66.9531C97.7347 68.808 98.0681 70.6771 98.4593 72.5604C98.8506 74.4436 99.3626 76.2435 99.9954 77.96C100.628 79.6766 101.404 81.2506 102.322 82.6823C103.24 84.114 104.357 85.3069 105.671 86.2612C106.988 87.2308 108.526 87.9105 110.285 88.3C112.06 88.687 114.111 88.6877 116.438 88.302C116.793 88.2433 117.127 88.1563 117.44 88.041C117.772 87.9385 118.08 87.7924 118.366 87.6026L118.581 88.0421ZM117.084 73.8695C116.78 74.5217 116.386 75.1494 115.899 75.7526C115.429 76.3532 114.885 76.8947 114.268 77.377C113.666 77.8568 113.014 78.2659 112.309 78.6043C111.621 78.9402 110.906 79.1694 110.166 79.292C109.118 79.4656 108.116 79.4891 107.161 79.3623C106.208 79.2509 105.347 78.974 104.576 78.5314C103.806 78.0889 103.159 77.4833 102.636 76.7148C102.11 75.9308 101.754 74.9762 101.568 73.8509C101.384 72.741 101.413 71.675 101.656 70.6529C101.911 69.6128 102.334 68.6795 102.926 67.8529C103.53 67.0084 104.284 66.2975 105.186 65.7204C106.088 65.1433 107.094 64.7628 108.204 64.5789C108.728 64.4921 109.226 64.4887 109.699 64.5688C110.184 64.6309 110.621 64.7803 111.009 65.017C111.394 65.2383 111.713 65.5417 111.967 65.9273C112.236 66.3103 112.416 66.7715 112.505 67.311C112.612 67.9585 112.576 68.5505 112.396 69.0872C112.215 69.6239 111.94 70.113 111.57 70.5545C111.199 70.9959 110.757 71.386 110.243 71.7245C109.744 72.0606 109.207 72.3555 108.632 72.6092C108.071 72.8604 107.505 73.0731 106.932 73.2472C106.372 73.4034 105.853 73.521 105.375 73.6002L104.82 73.6922C105.253 75.0617 105.985 76.0411 107.017 76.6303C108.049 77.2195 109.367 77.3813 110.97 77.1157C112.111 76.9267 113.187 76.5424 114.2 75.9629C115.228 75.3808 116.123 74.6624 116.884 73.8077L117.084 73.8695ZM104.636 73.01L105.214 72.9142C105.769 72.8223 106.325 72.643 106.883 72.3764C107.438 72.0943 107.918 71.7454 108.325 71.3297C108.744 70.896 109.065 70.3992 109.289 69.8395C109.513 69.2797 109.572 68.6761 109.464 68.0287C109.36 67.3967 109.134 66.8955 108.788 66.5253C108.457 66.1525 107.96 66.0211 107.297 66.1309C106.619 66.2433 106.075 66.5471 105.666 67.0425C105.27 67.5199 104.975 68.0835 104.782 68.7332C104.586 69.3675 104.474 70.0275 104.445 70.7134C104.429 71.3812 104.463 71.9695 104.547 72.4782L104.636 73.01ZM128.549 71.97C128.245 72.6221 127.85 73.2498 127.364 73.853C126.894 74.4536 126.35 74.9951 125.733 75.4774C125.131 75.9572 124.479 76.3663 123.774 76.7047C123.086 77.0406 122.371 77.2698 121.631 77.3924C120.583 77.5661 119.581 77.5895 118.626 77.4627C117.673 77.3514 116.812 77.0744 116.041 76.6318C115.271 76.1893 114.624 75.5837 114.101 74.8152C113.575 74.0312 113.219 73.0766 113.033 71.9513C112.849 70.8414 112.878 69.7754 113.12 68.7533C113.376 67.7132 113.799 66.7799 114.391 65.9533C114.995 65.1088 115.749 64.398 116.651 63.8209C117.553 63.2437 118.559 62.8633 119.669 62.6794C120.193 62.5925 120.691 62.5891 121.164 62.6692C121.649 62.7313 122.086 62.8807 122.473 63.1174C122.859 63.3387 123.178 63.6421 123.432 64.0277C123.701 64.4107 123.881 64.8719 123.97 65.4115C124.077 66.0589 124.041 66.6509 123.861 67.1876C123.68 67.7243 123.405 68.2134 123.035 68.6549C122.664 69.0964 122.222 69.4864 121.708 69.825C121.209 70.161 120.672 70.4559 120.097 70.7096C119.536 70.9608 118.97 71.1735 118.397 71.3476C117.837 71.5038 117.318 71.6215 116.84 71.7006L116.285 71.7926C116.718 73.1621 117.45 74.1415 118.482 74.7307C119.514 75.32 120.832 75.4818 122.435 75.2161C123.576 75.0271 124.652 74.6429 125.665 74.0633C126.693 73.4812 127.588 72.7628 128.349 71.9081L128.549 71.97ZM116.101 71.1104L116.679 71.0146C117.234 70.9227 117.79 70.7434 118.347 70.4768C118.903 70.1947 119.383 69.8459 119.79 69.4301C120.209 68.9964 120.53 68.4997 120.754 67.9399C120.978 67.3801 121.037 66.7765 120.929 66.1291C120.825 65.4971 120.599 64.996 120.253 64.6257C119.922 64.253 119.425 64.1215 118.762 64.2313C118.084 64.3437 117.54 64.6475 117.131 65.1429C116.735 65.6203 116.44 66.1839 116.247 66.8336C116.051 67.4679 115.939 68.1279 115.91 68.8138C115.894 69.4816 115.928 70.0699 116.012 70.5786L116.101 71.1104ZM140.8 69.9401C140.556 70.5667 140.243 71.1649 139.862 71.7348C139.497 72.3021 139.067 72.8167 138.574 73.2786C138.096 73.738 137.557 74.1202 136.958 74.4253C136.362 74.7458 135.725 74.9623 135.046 75.0747C134.044 75.2407 133.13 75.218 132.303 75.0065C131.492 74.7926 130.761 74.4464 130.112 73.968C129.46 73.4742 128.885 72.8725 128.387 72.1631C127.89 71.4536 127.464 70.7006 127.11 69.9039C126.754 69.0919 126.457 68.2542 126.219 67.3909C125.981 66.5275 125.795 65.6951 125.662 64.8935C125.54 64.1536 125.445 63.3932 125.379 62.6122C125.311 61.8158 125.27 60.9989 125.258 60.1615C124.783 60.2561 124.314 60.3417 123.852 60.4183C123.405 60.4924 122.958 60.5665 122.511 60.6405C122.218 60.6891 121.885 60.7363 121.513 60.7822C121.14 60.828 120.783 60.8238 120.441 60.7696C120.1 60.7153 119.803 60.5981 119.552 60.4181C119.3 60.238 119.14 59.9399 119.071 59.5237C119.033 59.2925 119.048 59.0999 119.118 58.9458C119.172 58.7943 119.271 58.6749 119.415 58.5877C119.541 58.4877 119.703 58.4133 119.9 58.3647C120.08 58.3032 120.27 58.2559 120.471 58.2227C120.702 58.1844 121.256 58.1323 122.132 58.0663C123.008 58.0004 124.062 57.9127 125.295 57.8035C125.379 55.9207 125.576 54.0508 125.886 52.1939C126.212 50.3345 126.64 48.6164 127.17 47.0397L127.494 46.986C127.279 48.748 127.121 50.5164 127.019 52.2913C126.933 54.0637 126.942 55.8438 127.049 57.6317C128.187 57.5224 129.354 57.4002 130.551 57.2652C131.761 57.1122 132.937 56.9412 134.078 56.7522C135.758 56.4738 137.119 56.2324 138.163 56.0279C139.206 55.8234 140.024 55.6482 140.617 55.5024C141.316 55.3232 141.838 55.1734 142.182 55.053L142.34 55.4308C141.451 55.7998 140.429 56.1829 139.276 56.58C138.119 56.9616 136.883 57.3406 135.568 57.7169C134.25 58.0779 132.883 58.4311 131.467 58.7765C130.051 59.1219 128.64 59.4429 127.232 59.7396C127.252 60.053 127.289 60.3715 127.342 60.6952C127.393 61.0035 127.445 61.3118 127.496 61.6201C127.618 62.36 127.784 63.1719 127.994 64.0558C128.219 64.9371 128.5 65.8171 128.836 66.6959C129.169 67.5594 129.561 68.3971 130.012 69.2093C130.476 70.0035 131.018 70.6898 131.636 71.2684C132.268 71.829 132.979 72.2497 133.77 72.5304C134.561 72.8111 135.449 72.8698 136.436 72.7063C137.345 72.5556 138.129 72.2199 138.787 71.6991C139.461 71.1757 140.08 70.5662 140.646 69.8706L140.8 69.9401Z" fill="#0C1014"/>
</g>
</g>
<defs>
<filter id="filter0_d" x="0" y="0" width="149" height="149" filterUnits="userSpaceOnUse" color-interpolation-filters="sRGB">
<feFlood flood-opacity="0" result="BackgroundImageFix"/>
<feColorMatrix in="SourceAlpha" type="matrix" values="0 0 0 0 0 0 0 0 0 0 0 0 0 0 0 0 0 0 127 0"/>
<feOffset dy="4"/>
<feGaussianBlur stdDeviation="2"/>
<feColorMatrix type="matrix" values="0 0 0 0 0 0 0 0 0 0 0 0 0 0 0 0 0 0 0.25 0"/>
<feBlend mode="normal" in2="BackgroundImageFix" result="effect1_dropShadow"/>
<feBlend mode="normal" in="SourceGraphic" in2="effect1_dropShadow" result="shape"/>
</filter>
<filter id="filter1_d" x="12.7148" y="46.986" width="129.625" height="54.9046" filterUnits="userSpaceOnUse" color-interpolation-filters="sRGB">
<feFlood flood-opacity="0" result="BackgroundImageFix"/>
<feColorMatrix in="SourceAlpha" type="matrix" values="0 0 0 0 0 0 0 0 0 0 0 0 0 0 0 0 0 0 127 0"/>
<feOffset dx="-3" dy="2"/>
<feColorMatrix type="matrix" values="0 0 0 0 0 0 0 0 0 0 0 0 0 0 0 0 0 0 0.25 0"/>
<feBlend mode="normal" in2="BackgroundImageFix" result="effect1_dropShadow"/>
<feBlend mode="normal" in="SourceGraphic" in2="effect1_dropShadow" result="shape"/>
</filter>
</defs>
</svg>
