<svg width="240" height="96" viewBox="0 0 240 96" fill="none" xmlns="http://www.w3.org/2000/svg">
<g filter="url(#filter0_d)">
<path d="M63.736 28.88C61.24 28.88 59.992 27.792 59.992 25.616C59.992 22.288 61.848 19.152 65.56 16.208C69.272 13.264 73.688 10.864 78.808 9.008C78.36 7.152 77.208 5.744 75.352 4.784C73.496 3.76 71.192 3.248 68.44 3.248C65.752 3.248 62.936 3.76 59.992 4.784C57.112 5.808 54.36 7.28 51.736 9.2C49.176 11.056 47.064 13.552 45.4 16.688C43.8 19.76 43 23.152 43 26.864C43 28.144 43.96 31.888 45.88 38.096C47.8 44.304 48.76 49.456 48.76 53.552C48.76 54.576 48.632 56.048 48.376 57.968C50.808 57.712 52.568 57.584 53.656 57.584C59.864 57.584 62.968 59.216 62.968 62.48C62.968 63.632 62.616 64.592 61.912 65.36C61.208 66.128 60.024 67.024 58.36 68.048C57.848 67.728 57.592 67.44 57.592 67.184C57.592 66.928 57.72 66.704 57.976 66.512C59.896 65.424 60.856 64.336 60.856 63.248C60.856 61.072 58.328 59.984 53.272 59.984C51.416 59.984 49.624 60.112 47.896 60.368C46.808 64.464 44.76 68.304 41.752 71.888C38.808 75.408 35.512 78.256 31.864 80.432C28.216 82.672 24.536 84.4 20.824 85.616C17.176 86.832 13.944 87.44 11.128 87.44C6.776 87.44 4.6 86.16 4.6 83.6C4.6 80.016 6.84 76.4 11.32 72.752C15.8 69.104 21.112 66.064 27.256 63.632C33.464 61.136 39.544 59.376 45.496 58.352C45.752 56.56 45.88 55.12 45.88 54.032C45.88 51.28 44.856 46.992 42.808 41.168C40.824 35.28 39.832 30.224 39.832 26C39.832 21.776 41.496 17.584 44.824 13.424C48.152 9.2 52.088 5.968 56.632 3.72799C61.24 1.488 65.592 0.367998 69.688 0.367998C76.152 0.367998 79.704 3.088 80.344 8.528C83.928 7.376 86.36 6.8 87.64 6.8C88.92 6.8 89.592 6.864 89.656 6.992C89.784 7.056 89.848 7.408 89.848 8.048C89.848 8.688 89.56 9.104 88.984 9.296C86.104 9.424 83.256 9.84 80.44 10.544C80.312 15.728 78.36 20.08 74.584 23.6C70.808 27.12 67.192 28.88 63.736 28.88ZM8.344 81.2C8.344 83.056 10.2 83.984 13.912 83.984C19.096 83.984 24.888 82.128 31.288 78.416C34.424 76.624 37.24 74.192 39.736 71.12C42.296 67.984 44.056 64.528 45.016 60.752C39.576 61.648 34.104 63.088 28.6 65.072C23.16 67.056 18.424 69.52 14.392 72.464C10.36 75.344 8.344 78.256 8.344 81.2ZM63.064 25.04C63.064 26.256 63.704 26.864 64.984 26.864C67.416 26.864 70.328 25.232 73.72 21.968C77.176 18.64 78.936 14.992 79 11.024C74.52 12.432 70.744 14.384 67.672 16.88C64.6 19.376 63.064 22.096 63.064 25.04ZM64.7995 42.32C69.1515 42.32 73.4395 42.288 77.6635 42.224C84.5115 33.456 89.1835 29.072 91.6795 29.072C92.5755 29.072 93.0235 29.552 93.0235 30.512C93.0235 33.584 90.7835 37.424 86.3035 42.032L93.5995 41.936C98.4635 41.744 101.44 41.648 102.528 41.648C103.616 41.648 104.16 41.776 104.16 42.032C104.16 43.248 103.328 43.888 101.664 43.952L83.6155 44.72C80.4795 47.664 76.6075 50.768 71.9995 54.032C67.1355 62.032 64.7035 67.472 64.7035 70.352C64.7035 71.824 65.6315 72.56 67.4875 72.56C69.4075 72.56 72.4155 71.536 76.5115 69.488L84.2875 64.976C84.3515 65.104 84.3835 65.36 84.3835 65.744C84.3835 66.128 84.0955 66.448 83.5195 66.704C81.4715 68.112 79.2315 69.52 76.7995 70.928C71.6155 73.552 67.6475 74.864 64.8955 74.864C63.6155 74.864 62.6235 74.608 61.9195 74.096C61.2155 73.584 60.8315 73.072 60.7675 72.56L60.5755 71.792C60.5755 69.616 62.0475 65.968 64.9915 60.848C67.9355 55.664 71.4235 50.384 75.4555 45.008C72.3835 45.136 69.4715 45.2 66.7195 45.2C63.9675 45.2 62.5915 44.88 62.5915 44.24C62.5915 43.024 63.3275 42.384 64.7995 42.32ZM90.0475 32.528C90.0475 32.208 89.9195 32.048 89.6635 32.048C88.1915 32.048 84.9275 35.408 79.8715 42.128H84.6715C88.2555 38.224 90.0475 35.024 90.0475 32.528ZM81.9835 44.816C79.9355 44.816 78.5595 44.848 77.8555 44.912C77.2795 45.744 76.4795 46.96 75.4555 48.56C74.4315 50.16 73.7275 51.248 73.3435 51.824C76.6715 49.392 79.5515 47.056 81.9835 44.816ZM93.3438 73.04C93.3438 72.336 93.8558 71.152 94.8798 69.488C95.9678 67.824 96.6718 66.768 96.9918 66.32C97.3758 65.872 97.9198 65.168 98.6238 64.208C91.0078 71.12 85.7598 74.576 82.8798 74.576C81.2797 74.576 80.4797 73.904 80.4797 72.56C80.4797 70.64 83.7118 65.232 90.1758 56.336C90.4958 55.824 90.9118 55.568 91.4238 55.568C92.8958 56.016 93.6318 56.336 93.6318 56.528C93.6318 56.72 93.4398 57.104 93.0558 57.68C87.5518 65.104 84.7998 69.296 84.7998 70.256C84.7998 71.152 85.1198 71.6 85.7598 71.6C87.5518 71.6 90.7198 69.552 95.2638 65.456C99.8718 61.296 103.2 57.872 105.248 55.184C105.504 54.736 105.92 54.512 106.496 54.512C107.776 54.768 108.416 55.024 108.416 55.28C107.712 56.304 106.752 57.648 105.536 59.312C104.32 60.976 103.328 62.352 102.56 63.44C101.792 64.464 100.992 65.584 100.16 66.8C98.5598 68.976 97.5998 70.576 97.2798 71.6C97.2798 72.24 97.7918 72.56 98.8158 72.56C99.9038 72.56 101.792 71.952 104.48 70.736C107.168 69.456 109.536 68.176 111.584 66.896L114.656 64.976C114.72 65.104 114.752 65.36 114.752 65.744C114.752 66.128 114.464 66.448 113.888 66.704C105.248 72.592 99.2318 75.536 95.8398 75.536C94.1758 75.536 93.3438 74.704 93.3438 73.04ZM128.61 64.976C128.162 66.704 127.938 68.56 127.938 70.544C127.938 72.528 128.77 73.52 130.434 73.52C130.882 73.52 131.618 73.296 132.642 72.848C133.73 72.336 134.338 72.08 134.466 72.08C134.658 72.08 134.754 72.144 134.754 72.272C134.754 73.04 134.082 73.84 132.738 74.672C131.394 75.504 130.05 75.92 128.706 75.92C126.018 75.92 124.674 74.128 124.674 70.544C124.674 69.712 124.706 69.072 124.77 68.624C119.65 73.104 115.714 75.344 112.962 75.344C110.274 75.344 108.93 74.416 108.93 72.56C108.93 69.808 111.266 66.384 115.938 62.288C120.674 58.128 125.154 55.76 129.378 55.184C133.026 47.696 137.506 40.688 142.818 34.16C148.194 27.632 152.322 24.368 155.202 24.368C155.714 24.368 156.13 24.656 156.45 25.232C156.77 25.744 156.93 26.256 156.93 26.768C156.93 28.88 153.794 34.192 147.522 42.704C141.314 51.216 135.01 58.64 128.61 64.976ZM153.378 28.208C153.378 27.696 153.186 27.44 152.802 27.44C151.714 27.44 149.634 29.232 146.562 32.816C143.554 36.4 140.386 40.976 137.058 46.544C133.73 52.048 131.266 57.104 129.666 61.712C135.618 55.44 141.058 48.944 145.986 42.224C150.914 35.504 153.378 30.832 153.378 28.208ZM113.538 71.792C113.538 72.752 114.082 73.232 115.17 73.232C116.898 73.232 120.258 70.832 125.25 66.032C126.082 63.088 127.074 60.368 128.226 57.872C125.09 58.64 121.858 60.688 118.53 64.016C115.202 67.344 113.538 69.936 113.538 71.792ZM143.72 64.688C139.88 64.688 137.96 63.856 137.96 62.192C137.96 60.208 140.232 57.872 144.776 55.184C149.32 52.432 153.416 51.056 157.064 51.056C158.92 51.056 159.848 51.632 159.848 52.784C159.848 53.424 159.368 54.128 158.408 54.896C157.448 55.664 156.52 56.272 155.624 56.72C154.728 57.168 154.216 57.392 154.088 57.392C153.704 57.392 153.448 57.232 153.32 56.912C153.192 56.464 153.512 56.016 154.28 55.568C155.112 55.056 155.528 54.512 155.528 53.936C155.528 53.36 154.792 53.072 153.32 53.072C151.912 53.072 149.672 54.096 146.6 56.144C143.528 58.128 141.992 59.76 141.992 61.04C141.992 62 143.112 62.48 145.352 62.48C145.736 62.48 146.44 62.448 147.464 62.384C148.488 62.32 149 62.448 149 62.768C149 63.088 147.4 64.24 144.2 66.224C141.064 68.208 139.496 69.904 139.496 71.312C139.496 72.912 140.52 73.712 142.568 73.712C144.68 73.712 147.048 73.168 149.672 72.08C153.896 70.224 157.736 68.24 161.192 66.128L163.016 64.976C163.08 65.104 163.112 65.36 163.112 65.744C163.112 66.128 162.824 66.448 162.248 66.704C158.856 69.008 155.144 71.216 151.112 73.328C147.08 75.376 143.432 76.4 140.168 76.4C136.968 76.4 135.368 75.344 135.368 73.232C135.368 71.056 138.152 68.208 143.72 64.688ZM160.188 66.704C161.404 66 163.004 64.88 164.988 63.344C169.852 59.504 172.444 57.584 172.764 57.584C173.724 57.584 174.204 58 174.204 58.832C174.204 59.664 173.692 60.944 172.668 62.672C171.708 64.4 170.588 66.192 169.308 68.048C168.092 69.904 167.388 71.024 167.196 71.408C167.26 71.472 167.388 71.504 167.58 71.504C167.836 71.504 169.116 70.672 171.42 69.008C173.724 67.28 176.124 65.488 178.62 63.632C181.116 61.712 182.588 60.624 183.036 60.368C183.484 60.048 183.9 59.888 184.284 59.888C185.052 59.952 185.436 60.4 185.436 61.232C185.436 61.552 184.348 63.184 182.172 66.128C179.996 69.008 178.908 70.864 178.908 71.696C178.908 72.272 179.58 72.56 180.924 72.56C182.332 72.56 184.38 71.952 187.068 70.736C189.756 69.456 192.124 68.176 194.172 66.896L197.244 64.976C197.308 65.104 197.34 65.36 197.34 65.744C197.34 66.128 197.052 66.448 196.476 66.704C187.836 72.592 181.82 75.536 178.428 75.536C176.444 75.536 175.452 74.768 175.452 73.232C175.452 71.76 175.868 70.352 176.7 69.008C177.596 67.664 178.364 66.544 179.004 65.648C179.644 64.688 179.964 64.176 179.964 64.112C177.02 66.224 173.532 68.752 169.5 71.696C165.468 74.64 163.196 76.112 162.684 76.112C162.3 76.112 162.108 75.664 162.108 74.768C162.108 73.872 163.356 71.536 165.852 67.76C168.412 63.984 169.692 61.968 169.692 61.712C169.692 61.456 169.628 61.328 169.5 61.328L168.54 61.808L163.74 65.648C163.42 65.904 162.812 66.32 161.916 66.896C161.02 67.472 160.444 67.76 160.188 67.76C159.995 67.76 159.899 67.632 159.899 67.376C159.899 67.056 159.995 66.832 160.188 66.704ZM196.612 42.32C200.964 42.32 205.252 42.288 209.476 42.224C216.324 33.456 220.996 29.072 223.492 29.072C224.388 29.072 224.836 29.552 224.836 30.512C224.836 33.584 222.596 37.424 218.116 42.032L225.412 41.936C230.276 41.744 233.252 41.648 234.34 41.648C235.428 41.648 235.972 41.776 235.972 42.032C235.972 43.248 235.14 43.888 233.476 43.952L215.428 44.72C212.292 47.664 208.42 50.768 203.812 54.032C198.948 62.032 196.516 67.472 196.516 70.352C196.516 71.824 197.444 72.56 199.3 72.56C201.22 72.56 204.228 71.536 208.324 69.488L216.1 64.976C216.164 65.104 216.196 65.36 216.196 65.744C216.196 66.128 215.908 66.448 215.332 66.704C213.284 68.112 211.044 69.52 208.612 70.928C203.428 73.552 199.46 74.864 196.708 74.864C195.428 74.864 194.436 74.608 193.732 74.096C193.028 73.584 192.644 73.072 192.58 72.56L192.388 71.792C192.388 69.616 193.86 65.968 196.804 60.848C199.748 55.664 203.236 50.384 207.268 45.008C204.196 45.136 201.284 45.2 198.532 45.2C195.78 45.2 194.404 44.88 194.404 44.24C194.404 43.024 195.14 42.384 196.612 42.32ZM221.86 32.528C221.86 32.208 221.732 32.048 221.476 32.048C220.004 32.048 216.74 35.408 211.684 42.128H216.484C220.068 38.224 221.86 35.024 221.86 32.528ZM213.796 44.816C211.748 44.816 210.372 44.848 209.668 44.912C209.092 45.744 208.292 46.96 207.268 48.56C206.244 50.16 205.54 51.248 205.156 51.824C208.484 49.392 211.364 47.056 213.796 44.816Z" fill="#A9A9A9"/>
</g>
<defs>
<filter id="filter0_d" x="0.599609" y="0.368011" width="239.372" height="95.072" filterUnits="userSpaceOnUse" color-interpolation-filters="sRGB">
<feFlood flood-opacity="0" result="BackgroundImageFix"/>
<feColorMatrix in="SourceAlpha" type="matrix" values="0 0 0 0 0 0 0 0 0 0 0 0 0 0 0 0 0 0 127 0"/>
<feOffset dy="4"/>
<feGaussianBlur stdDeviation="2"/>
<feColorMatrix type="matrix" values="0 0 0 0 0 0 0 0 0 0 0 0 0 0 0 0 0 0 0.25 0"/>
<feBlend mode="normal" in2="BackgroundImageFix" result="effect1_dropShadow"/>
<feBlend mode="normal" in="SourceGraphic" in2="effect1_dropShadow" result="shape"/>
</filter>
</defs>
</svg>
