<svg width="173" height="66" viewBox="0 0 173 66" fill="none" xmlns="http://www.w3.org/2000/svg">
<path d="M13.9688 7.5625C12.5312 9.3125 11.2292 11.2083 10.0625 13.25C8.91667 15.2708 7.92708 17.4479 7.09375 19.7812C6.26042 22.0938 5.625 24.5729 5.1875 27.2188C4.75 29.8438 4.53125 32.6562 4.53125 35.6562C4.53125 37.0729 4.58333 38.5625 4.6875 40.125C4.79167 41.6667 4.96875 43.1875 5.21875 44.6875C5.48958 46.1667 5.84375 47.5833 6.28125 48.9375C6.73958 50.2708 7.32292 51.4479 8.03125 52.4688C8.73958 53.4896 9.59375 54.2917 10.5938 54.875C11.5938 55.4792 12.7708 55.7812 14.125 55.7812C15.375 55.7812 16.4792 55.3646 17.4375 54.5312C18.4167 53.7188 19.2708 52.6458 20 51.3125C19.3333 49.9375 18.75 48.5 18.25 47C17.7708 45.5 17.3646 44 17.0312 42.5C16.7188 40.9792 16.4792 39.4792 16.3125 38C16.1667 36.5208 16.0938 35.125 16.0938 33.8125C16.0938 33.2083 16.1042 32.4479 16.125 31.5312C16.1667 30.6146 16.25 29.6562 16.375 28.6562C16.5 27.6354 16.6771 26.6146 16.9062 25.5938C17.1562 24.5729 17.4896 23.6667 17.9062 22.875C18.3229 22.0625 18.8333 21.4062 19.4375 20.9062C20.0625 20.3854 20.8229 20.125 21.7188 20.125C22.5312 20.125 23.2292 20.375 23.8125 20.875C24.4167 21.375 24.9271 22.0208 25.3438 22.8125C25.7604 23.5833 26.1042 24.4688 26.375 25.4688C26.6458 26.4479 26.8542 27.4271 27 28.4062C27.1667 29.3646 27.2708 30.2708 27.3125 31.125C27.375 31.9792 27.4062 32.6771 27.4062 33.2188C27.4062 34.4062 27.3229 35.6979 27.1562 37.0938C27.0104 38.4896 26.7708 39.9375 26.4375 41.4375C26.125 42.9167 25.7292 44.4167 25.25 45.9375C24.7708 47.4375 24.2083 48.8854 23.5625 50.2812C24.1875 51.2604 24.8646 52.1562 25.5938 52.9688C26.3229 53.8021 27.1146 54.5104 27.9688 55.0938C28.8438 55.6979 29.7708 56.1562 30.75 56.4688C31.7292 56.8021 32.7708 56.9688 33.875 56.9688C35.5625 56.9688 37.0625 56.6458 38.375 56C39.6875 55.375 40.8229 54.5208 41.7812 53.4375C42.7396 52.3542 43.5417 51.0833 44.1875 49.625C44.8542 48.1667 45.3854 46.6146 45.7812 44.9688C46.1771 43.3229 46.4583 41.625 46.625 39.875C46.7917 38.125 46.875 36.4062 46.875 34.7188C46.875 32.3021 46.6458 29.8958 46.1875 27.5C45.75 25.0833 45.0938 22.75 44.2188 20.5C43.3646 18.2292 42.2917 16.0729 41 14.0312C39.7292 11.9896 38.25 10.125 36.5625 8.4375C34.875 6.75 32.9896 5.28125 30.9062 4.03125C28.8438 2.78125 26.5938 1.80208 24.1562 1.09375L24.7812 0.34375C27.6562 0.989583 30.2917 2 32.6875 3.375C35.0833 4.75 37.2396 6.39583 39.1562 8.3125C41.0938 10.2292 42.7812 12.3646 44.2188 14.7188C45.6771 17.0729 46.8854 19.5521 47.8438 22.1562C48.8229 24.7604 49.5521 27.4479 50.0312 30.2188C50.5312 32.9896 50.7812 35.7396 50.7812 38.4688C50.7812 40.1562 50.6458 41.9062 50.375 43.7188C50.125 45.5104 49.7188 47.2708 49.1562 49C48.5938 50.7083 47.8646 52.3229 46.9688 53.8438C46.0938 55.3854 45.0312 56.7292 43.7812 57.875C42.5312 59.0417 41.0729 59.9583 39.4062 60.625C37.7604 61.3125 35.8958 61.6562 33.8125 61.6562C32.4583 61.6562 31.1875 61.4688 30 61.0938C28.8125 60.7188 27.7083 60.1875 26.6875 59.5C25.6667 58.8333 24.7188 58.0312 23.8438 57.0938C22.9896 56.1562 22.2083 55.125 21.5 54C20.8958 54.8958 20.25 55.7188 19.5625 56.4688C18.875 57.2188 18.1354 57.8542 17.3438 58.375C16.5521 58.9167 15.7083 59.3333 14.8125 59.625C13.9375 59.9167 13.0104 60.0625 12.0312 60.0625C10.4062 60.0625 8.97917 59.7083 7.75 59C6.54167 58.3125 5.5 57.3958 4.625 56.25C3.77083 55.125 3.0625 53.8438 2.5 52.4062C1.95833 50.9896 1.52083 49.5521 1.1875 48.0938C0.875 46.6354 0.65625 45.2292 0.53125 43.875C0.40625 42.5 0.34375 41.3125 0.34375 40.3125C0.34375 33.7917 1.4375 27.75 3.625 22.1875C5.83333 16.6042 9.08333 11.5729 13.375 7.09375L13.9688 7.5625ZM18.4375 30.9375C18.4375 32.125 18.5 33.3854 18.625 34.7188C18.7708 36.0521 18.9792 37.4167 19.25 38.8125C19.5417 40.2083 19.8958 41.6042 20.3125 43C20.7292 44.375 21.2292 45.7083 21.8125 47C22.1667 45.8958 22.4688 44.7604 22.7188 43.5938C22.9688 42.4271 23.1771 41.2917 23.3438 40.1875C23.5104 39.0625 23.625 38 23.6875 37C23.7708 36 23.8125 35.1042 23.8125 34.3125C23.8125 33.1042 23.75 31.8646 23.625 30.5938C23.5208 29.3229 23.3438 28.1667 23.0938 27.125C22.8438 26.0833 22.5104 25.2292 22.0938 24.5625C21.6979 23.8958 21.2083 23.5625 20.625 23.5625C20.2917 23.5625 20 23.7188 19.75 24.0312C19.5208 24.3438 19.3229 24.7396 19.1562 25.2188C19.0104 25.6771 18.8854 26.1979 18.7812 26.7812C18.6771 27.3646 18.5938 27.9375 18.5312 28.5C18.4896 29.0417 18.4583 29.5312 18.4375 29.9688C18.4375 30.4062 18.4375 30.7292 18.4375 30.9375ZM71.745 45.5312C71.2033 46.3229 70.5471 47.0625 69.7762 47.75C69.0262 48.4375 68.1929 49.0312 67.2762 49.5312C66.3804 50.0312 65.4325 50.4271 64.4325 50.7188C63.4533 51.0104 62.4637 51.1562 61.4637 51.1562C60.0471 51.1562 58.7242 50.9688 57.495 50.5938C56.2658 50.2396 55.1929 49.6875 54.2762 48.9375C53.3596 48.1875 52.6408 47.25 52.12 46.125C51.5992 44.9792 51.3387 43.6458 51.3387 42.125C51.3387 40.625 51.6096 39.2292 52.1512 37.9375C52.7137 36.625 53.4742 35.4896 54.4325 34.5312C55.4117 33.5521 56.5575 32.7812 57.87 32.2188C59.1825 31.6562 60.5887 31.375 62.0887 31.375C62.7971 31.375 63.4533 31.4792 64.0575 31.6875C64.6825 31.875 65.2242 32.1667 65.6825 32.5625C66.1408 32.9375 66.495 33.4062 66.745 33.9688C67.0158 34.5312 67.1512 35.1771 67.1512 35.9062C67.1512 36.7812 66.9742 37.5521 66.62 38.2188C66.2658 38.8854 65.7971 39.4688 65.2137 39.9688C64.6304 40.4688 63.9637 40.8854 63.2137 41.2188C62.4846 41.5521 61.7137 41.8229 60.9012 42.0312C60.1096 42.2396 59.3179 42.3958 58.5262 42.5C57.7554 42.5833 57.0471 42.625 56.4012 42.625H55.6512C55.9221 44.5208 56.6721 45.9688 57.9012 46.9688C59.1304 47.9688 60.8283 48.4688 62.995 48.4688C64.5367 48.4688 66.0367 48.1979 67.495 47.6562C68.9742 47.1146 70.3075 46.3646 71.495 45.4062L71.745 45.5312ZM55.5575 41.6875H56.3387C57.0887 41.6875 57.8596 41.5729 58.6512 41.3438C59.4429 41.0938 60.1512 40.7396 60.7762 40.2812C61.4221 39.8021 61.9533 39.2188 62.37 38.5312C62.7867 37.8438 62.995 37.0625 62.995 36.1875C62.995 35.3333 62.8075 34.625 62.4325 34.0625C62.0783 33.5 61.4533 33.2188 60.5575 33.2188C59.6408 33.2188 58.8596 33.5 58.2137 34.0625C57.5887 34.6042 57.0783 35.2812 56.6825 36.0938C56.2867 36.8854 55.995 37.7292 55.8075 38.625C55.6408 39.5 55.5575 40.2812 55.5575 40.9688V41.6875ZM134.615 64.5C133.907 65.0208 133.136 65.375 132.302 65.5625C131.49 65.75 130.667 65.8438 129.834 65.8438C126.98 65.8438 124.438 65.4167 122.209 64.5625C120 63.7292 118.052 62.5729 116.365 61.0938C114.698 59.6146 113.271 57.875 112.084 55.875C110.917 53.875 109.938 51.7188 109.146 49.4062C108.375 47.0938 107.782 44.6771 107.365 42.1562C106.948 39.6354 106.667 37.125 106.521 34.625C106.375 32.1042 106.334 29.6458 106.396 27.25C106.48 24.8333 106.625 22.5938 106.834 20.5312C106.459 21.0938 106 21.9896 105.459 23.2188C104.917 24.4479 104.313 25.8854 103.646 27.5312C103 29.1771 102.323 30.9792 101.615 32.9375C100.907 34.875 100.198 36.8333 99.49 38.8125C98.8025 40.7917 98.1254 42.7396 97.4587 44.6562C96.8129 46.5521 96.2296 48.2812 95.7087 49.8438C95.2087 51.4062 94.7712 52.7292 94.3962 53.8125C94.0421 54.9167 93.8129 55.6562 93.7087 56.0312C93.6254 56.2812 93.5108 56.5938 93.365 56.9688C93.24 57.3438 93.0733 57.7083 92.865 58.0625C92.6775 58.4167 92.4483 58.7188 92.1775 58.9688C91.9275 59.2188 91.6358 59.3438 91.3025 59.3438C90.9275 59.3438 90.615 59.1875 90.365 58.875C90.115 58.5833 89.9067 58.2292 89.74 57.8125C89.5942 57.3958 89.4692 56.9792 89.365 56.5625C89.2817 56.1458 89.2192 55.8125 89.1775 55.5625C89.0525 54.6875 88.9379 53.5833 88.8337 52.25C88.7296 50.9167 88.6358 49.4375 88.5525 47.8125C88.49 46.1875 88.4379 44.4583 88.3962 42.625C88.3546 40.7708 88.3129 38.9167 88.2712 37.0625C88.2504 35.1875 88.2296 33.3542 88.2087 31.5625C88.2087 29.75 88.1983 28.0625 88.1775 26.5C88.1775 24.9167 88.1775 23.5 88.1775 22.25C88.1775 21 88.1775 20 88.1775 19.25C87.7192 20.2917 87.1671 21.6146 86.5212 23.2188C85.8962 24.8229 85.2087 26.625 84.4587 28.625C83.7296 30.625 82.9587 32.7812 82.1462 35.0938C81.3546 37.3854 80.5629 39.75 79.7712 42.1875C79.0004 44.625 78.2504 47.0833 77.5212 49.5625C76.8129 52.0417 76.1775 54.4479 75.615 56.7812C75.5525 56.9896 75.4692 57.2396 75.365 57.5312C75.2817 57.8438 75.1671 58.1354 75.0212 58.4062C74.8754 58.6771 74.6879 58.9062 74.4587 59.0938C74.2504 59.3021 73.99 59.4062 73.6775 59.4062C73.3858 59.4062 73.1254 59.3125 72.8962 59.125C72.6671 58.9375 72.4692 58.7083 72.3025 58.4375C72.1567 58.1875 72.0317 57.9062 71.9275 57.5938C71.8442 57.3021 71.7921 57.0312 71.7712 56.7812C71.6671 56.2604 71.5733 55.6875 71.49 55.0625C71.4275 54.4375 71.365 53.7917 71.3025 53.125C71.2608 52.4792 71.2192 51.8333 71.1775 51.1875C71.1358 50.5625 71.0942 49.9792 71.0525 49.4375C70.8233 46.5833 70.6567 43.7604 70.5525 40.9688C70.4692 38.1771 70.4275 35.3646 70.4275 32.5312C70.4275 29.7396 70.4692 26.9688 70.5525 24.2188C70.6567 21.4688 70.8025 18.6875 70.99 15.875C71.0525 15.0625 71.1462 14.1562 71.2712 13.1562C71.3962 12.1354 71.6358 11.1771 71.99 10.2812C72.365 9.38542 72.8962 8.63542 73.5837 8.03125C74.2921 7.42708 75.2504 7.125 76.4587 7.125C76.7504 7.125 77.0004 7.19792 77.2087 7.34375C77.4171 7.46875 77.5212 7.69792 77.5212 8.03125V8.34375C77.3337 9.59375 77.1462 10.8438 76.9587 12.0938C76.7712 13.3229 76.5733 14.5833 76.365 15.875C75.865 20.0417 75.4379 24.2083 75.0837 28.375C74.7504 32.5208 74.5837 36.6979 74.5837 40.9062C74.5837 42.5521 74.615 44.1771 74.6775 45.7812C74.74 47.3854 74.8546 49 75.0212 50.625C76.4587 46.1667 77.7192 42.2188 78.8025 38.7812C79.9067 35.3438 80.8754 32.3333 81.7087 29.75C82.5421 27.1667 83.24 24.9688 83.8025 23.1562C84.3858 21.3229 84.8754 19.7917 85.2712 18.5625C85.6671 17.3333 85.9796 16.3542 86.2087 15.625C86.4379 14.875 86.6254 14.3021 86.7712 13.9062C86.9171 13.4896 87.0212 13.1875 87.0837 13C87.1462 12.8125 87.2087 12.6458 87.2712 12.5C87.5837 11.7917 88.0108 11.1562 88.5525 10.5938C89.0942 10.0312 89.7921 9.75 90.6462 9.75C91.2296 9.75 91.6983 9.89583 92.0525 10.1875C92.4275 10.4792 92.7192 10.8438 92.9275 11.2812C93.1358 11.7188 93.2712 12.1979 93.3337 12.7188C93.4171 13.2396 93.4587 13.7188 93.4587 14.1562C93.4171 17.3854 93.3233 20.5833 93.1775 23.75C93.0317 26.8958 92.9067 30.0208 92.8025 33.125C92.6983 36.2292 92.6462 39.3125 92.6462 42.375C92.6671 45.4375 92.8129 48.4896 93.0837 51.5312C93.9171 49.0729 94.6879 46.7604 95.3962 44.5938C96.1046 42.4062 96.7712 40.3229 97.3962 38.3438C98.0421 36.3646 98.6567 34.4583 99.24 32.625C99.8442 30.7917 100.459 28.9792 101.084 27.1875C101.73 25.3958 102.396 23.6042 103.084 21.8125C103.771 20.0208 104.532 18.1771 105.365 16.2812C105.552 15.9062 105.761 15.5312 105.99 15.1562C106.219 14.7604 106.48 14.4062 106.771 14.0938C107.063 13.7812 107.396 13.5208 107.771 13.3125C108.146 13.1042 108.563 13 109.021 13C109.667 13 110.177 13.2083 110.552 13.625C110.927 14.0417 111.209 14.5417 111.396 15.125C111.605 15.7083 111.74 16.3229 111.802 16.9688C111.865 17.5938 111.896 18.125 111.896 18.5625C111.896 20.4792 111.834 22.6042 111.709 24.9375C111.584 27.25 111.49 29.6562 111.427 32.1562C111.386 34.6562 111.417 37.1875 111.521 39.75C111.625 42.3125 111.907 44.7917 112.365 47.1875C112.823 49.5833 113.5 51.8229 114.396 53.9062C115.292 55.9896 116.5 57.8021 118.021 59.3438C119.542 60.9062 121.417 62.1354 123.646 63.0312C125.896 63.9271 128.594 64.375 131.74 64.375C132.219 64.375 132.677 64.3333 133.115 64.25C133.573 64.1875 134.011 64.0625 134.427 63.875L134.615 64.5ZM135.735 45.5312C135.193 46.3229 134.537 47.0625 133.766 47.75C133.016 48.4375 132.183 49.0312 131.266 49.5312C130.37 50.0312 129.423 50.4271 128.423 50.7188C127.443 51.0104 126.454 51.1562 125.454 51.1562C124.037 51.1562 122.714 50.9688 121.485 50.5938C120.256 50.2396 119.183 49.6875 118.266 48.9375C117.35 48.1875 116.631 47.25 116.11 46.125C115.589 44.9792 115.329 43.6458 115.329 42.125C115.329 40.625 115.6 39.2292 116.141 37.9375C116.704 36.625 117.464 35.4896 118.423 34.5312C119.402 33.5521 120.548 32.7812 121.86 32.2188C123.173 31.6562 124.579 31.375 126.079 31.375C126.787 31.375 127.443 31.4792 128.048 31.6875C128.673 31.875 129.214 32.1667 129.673 32.5625C130.131 32.9375 130.485 33.4062 130.735 33.9688C131.006 34.5312 131.141 35.1771 131.141 35.9062C131.141 36.7812 130.964 37.5521 130.61 38.2188C130.256 38.8854 129.787 39.4688 129.204 39.9688C128.62 40.4688 127.954 40.8854 127.204 41.2188C126.475 41.5521 125.704 41.8229 124.891 42.0312C124.1 42.2396 123.308 42.3958 122.516 42.5C121.745 42.5833 121.037 42.625 120.391 42.625H119.641C119.912 44.5208 120.662 45.9688 121.891 46.9688C123.12 47.9688 124.818 48.4688 126.985 48.4688C128.527 48.4688 130.027 48.1979 131.485 47.6562C132.964 47.1146 134.298 46.3646 135.485 45.4062L135.735 45.5312ZM119.548 41.6875H120.329C121.079 41.6875 121.85 41.5729 122.641 41.3438C123.433 41.0938 124.141 40.7396 124.766 40.2812C125.412 39.8021 125.943 39.2188 126.36 38.5312C126.777 37.8438 126.985 37.0625 126.985 36.1875C126.985 35.3333 126.798 34.625 126.423 34.0625C126.068 33.5 125.443 33.2188 124.548 33.2188C123.631 33.2188 122.85 33.5 122.204 34.0625C121.579 34.6042 121.068 35.2812 120.673 36.0938C120.277 36.8854 119.985 37.7292 119.798 38.625C119.631 39.5 119.548 40.2812 119.548 40.9688V41.6875ZM151.23 45.5312C150.688 46.3229 150.032 47.0625 149.261 47.75C148.511 48.4375 147.678 49.0312 146.761 49.5312C145.865 50.0312 144.917 50.4271 143.917 50.7188C142.938 51.0104 141.949 51.1562 140.949 51.1562C139.532 51.1562 138.209 50.9688 136.98 50.5938C135.751 50.2396 134.678 49.6875 133.761 48.9375C132.845 48.1875 132.126 47.25 131.605 46.125C131.084 44.9792 130.824 43.6458 130.824 42.125C130.824 40.625 131.095 39.2292 131.636 37.9375C132.199 36.625 132.959 35.4896 133.917 34.5312C134.897 33.5521 136.042 32.7812 137.355 32.2188C138.667 31.6562 140.074 31.375 141.574 31.375C142.282 31.375 142.938 31.4792 143.542 31.6875C144.167 31.875 144.709 32.1667 145.167 32.5625C145.626 32.9375 145.98 33.4062 146.23 33.9688C146.501 34.5312 146.636 35.1771 146.636 35.9062C146.636 36.7812 146.459 37.5521 146.105 38.2188C145.751 38.8854 145.282 39.4688 144.699 39.9688C144.115 40.4688 143.449 40.8854 142.699 41.2188C141.97 41.5521 141.199 41.8229 140.386 42.0312C139.595 42.2396 138.803 42.3958 138.011 42.5C137.24 42.5833 136.532 42.625 135.886 42.625H135.136C135.407 44.5208 136.157 45.9688 137.386 46.9688C138.615 47.9688 140.313 48.4688 142.48 48.4688C144.022 48.4688 145.522 48.1979 146.98 47.6562C148.459 47.1146 149.792 46.3646 150.98 45.4062L151.23 45.5312ZM135.042 41.6875H135.824C136.574 41.6875 137.345 41.5729 138.136 41.3438C138.928 41.0938 139.636 40.7396 140.261 40.2812C140.907 39.8021 141.438 39.2188 141.855 38.5312C142.272 37.8438 142.48 37.0625 142.48 36.1875C142.48 35.3333 142.292 34.625 141.917 34.0625C141.563 33.5 140.938 33.2188 140.042 33.2188C139.126 33.2188 138.345 33.5 137.699 34.0625C137.074 34.6042 136.563 35.2812 136.167 36.0938C135.772 36.8854 135.48 37.7292 135.292 38.625C135.126 39.5 135.042 40.2812 135.042 40.9688V41.6875ZM167.788 45.5312C167.329 46.3021 166.788 47.0208 166.163 47.6875C165.558 48.3542 164.881 48.9375 164.131 49.4375C163.402 49.9375 162.61 50.3229 161.756 50.5938C160.902 50.8854 160.017 51.0312 159.1 51.0312C157.746 51.0312 156.548 50.8021 155.506 50.3438C154.485 49.8854 153.6 49.2708 152.85 48.5C152.1 47.7083 151.475 46.7917 150.975 45.75C150.475 44.7083 150.079 43.625 149.788 42.5C149.496 41.3542 149.288 40.1875 149.163 39C149.038 37.8125 148.975 36.6771 148.975 35.5938C148.975 34.5938 149.017 33.5729 149.1 32.5312C149.183 31.4688 149.308 30.3854 149.475 29.2812C148.829 29.3021 148.194 29.3125 147.569 29.3125C146.965 29.3125 146.36 29.3125 145.756 29.3125C145.36 29.3125 144.913 29.3021 144.413 29.2812C143.913 29.2604 143.444 29.1771 143.006 29.0312C142.569 28.8854 142.204 28.6667 141.913 28.375C141.621 28.0833 141.475 27.6562 141.475 27.0938C141.475 26.7812 141.538 26.5312 141.663 26.3438C141.767 26.1562 141.923 26.0208 142.131 25.9375C142.319 25.8333 142.548 25.7708 142.819 25.75C143.069 25.7083 143.329 25.6875 143.6 25.6875C143.913 25.6875 144.652 25.7396 145.819 25.8438C146.985 25.9479 148.392 26.0625 150.038 26.1875C150.558 23.7292 151.225 21.3125 152.038 18.9375C152.871 16.5625 153.808 14.3958 154.85 12.4375H155.288C154.621 14.7083 154.027 17 153.506 19.3125C153.006 21.625 152.631 23.9688 152.381 26.3438C153.902 26.4479 155.465 26.5417 157.069 26.625C158.694 26.6875 160.277 26.7188 161.819 26.7188C164.09 26.7188 165.933 26.6979 167.35 26.6562C168.767 26.6146 169.881 26.5625 170.694 26.5C171.652 26.4167 172.371 26.3333 172.85 26.25L172.975 26.7812C171.725 27.0729 170.298 27.3542 168.694 27.625C167.09 27.875 165.381 28.1042 163.569 28.3125C161.756 28.5 159.881 28.6667 157.944 28.8125C156.006 28.9583 154.079 29.0729 152.163 29.1562C152.121 29.5729 152.1 30 152.1 30.4375C152.1 30.8542 152.1 31.2708 152.1 31.6875C152.1 32.6875 152.142 33.7917 152.225 35C152.329 36.2083 152.506 37.4271 152.756 38.6562C153.006 39.8646 153.34 41.0521 153.756 42.2188C154.194 43.3646 154.756 44.3854 155.444 45.2812C156.152 46.1562 156.996 46.8646 157.975 47.4062C158.954 47.9479 160.11 48.2188 161.444 48.2188C162.673 48.2188 163.777 47.9479 164.756 47.4062C165.756 46.8646 166.704 46.1979 167.6 45.4062L167.788 45.5312Z" fill="#706265"/>
</svg>
