<svg width="708" height="369" viewBox="0 0 708 369" fill="none" xmlns="http://www.w3.org/2000/svg">
<path d="M244.5 208.5H218.5L211.75 242H163.75L170.5 208.5H78L84.25 176.25L182.75 67H236L145.75 169.25H180.5L186.5 139.5H232.25L226.25 169.25H252.5L244.5 208.5ZM328.799 245.5C308.632 245.5 292.632 239.583 280.799 227.75C269.132 215.75 263.299 199.167 263.299 178C263.299 156.667 267.215 137.333 275.049 120C283.049 102.5 294.132 88.75 308.299 78.75C322.466 68.5833 338.466 63.5 356.299 63.5C376.466 63.5 392.382 69.5 404.049 81.5C415.882 93.3333 421.799 109.833 421.799 131C421.799 152.333 417.799 171.75 409.799 189.25C401.966 206.583 390.966 220.333 376.799 230.5C362.632 240.5 346.632 245.5 328.799 245.5ZM333.549 205C341.549 205 348.465 201.083 354.299 193.25C360.132 185.417 364.549 175.833 367.549 164.5C370.549 153.167 372.049 142.417 372.049 132.25C372.049 122.583 370.215 115.5 366.549 111C363.049 106.333 358.049 104 351.549 104C343.549 104 336.632 107.917 330.799 115.75C324.966 123.583 320.549 133.167 317.549 144.5C314.549 155.833 313.049 166.583 313.049 176.75C313.049 195.583 319.882 205 333.549 205ZM590.691 208.5H564.691L557.941 242H509.941L516.691 208.5H424.191L430.441 176.25L528.941 67H582.191L491.941 169.25H526.691L532.691 139.5H578.441L572.441 169.25H598.691L590.691 208.5Z" fill="#BF0020"/>
<path d="M244.5 208.5V209.5H245.317L245.48 208.7L244.5 208.5ZM218.5 208.5V207.5H217.681L217.52 208.302L218.5 208.5ZM211.75 242V243H212.569L212.73 242.198L211.75 242ZM163.75 242L162.77 241.802L162.528 243H163.75V242ZM170.5 208.5L171.48 208.698L171.722 207.5H170.5V208.5ZM78 208.5L77.0183 208.31L76.7876 209.5H78V208.5ZM84.25 176.25L83.5073 175.58L83.3212 175.787L83.2683 176.06L84.25 176.25ZM182.75 67V66H182.305L182.007 66.3304L182.75 67ZM236 67L236.75 67.6617L238.216 66H236V67ZM145.75 169.25L145 168.588L143.534 170.25H145.75V169.25ZM180.5 169.25V170.25H181.318L181.48 169.448L180.5 169.25ZM186.5 139.5V138.5H185.682L185.52 139.302L186.5 139.5ZM232.25 139.5L233.23 139.698L233.472 138.5H232.25V139.5ZM226.25 169.25L225.27 169.052L225.028 170.25H226.25V169.25ZM252.5 169.25L253.48 169.45L253.724 168.25H252.5V169.25ZM244.5 207.5H218.5V209.5H244.5V207.5ZM217.52 208.302L210.77 241.802L212.73 242.198L219.48 208.698L217.52 208.302ZM211.75 241H163.75V243H211.75V241ZM164.73 242.198L171.48 208.698L169.52 208.302L162.77 241.802L164.73 242.198ZM170.5 207.5H78V209.5H170.5V207.5ZM78.9817 208.69L85.2317 176.44L83.2683 176.06L77.0183 208.31L78.9817 208.69ZM84.9927 176.92L183.493 67.6696L182.007 66.3304L83.5073 175.58L84.9927 176.92ZM182.75 68H236V66H182.75V68ZM235.25 66.3382L145 168.588L146.5 169.912L236.75 67.6617L235.25 66.3382ZM145.75 170.25H180.5V168.25H145.75V170.25ZM181.48 169.448L187.48 139.698L185.52 139.302L179.52 169.052L181.48 169.448ZM186.5 140.5H232.25V138.5H186.5V140.5ZM231.27 139.302L225.27 169.052L227.23 169.448L233.23 139.698L231.27 139.302ZM226.25 170.25H252.5V168.25H226.25V170.25ZM251.52 169.05L243.52 208.3L245.48 208.7L253.48 169.45L251.52 169.05ZM280.799 227.75L280.082 228.447L280.092 228.457L280.799 227.75ZM275.049 120L274.139 119.584L274.138 119.588L275.049 120ZM308.299 78.75L308.876 79.567L308.882 79.5624L308.299 78.75ZM404.049 81.5L403.332 82.1971L403.342 82.2071L404.049 81.5ZM409.799 189.25L408.889 188.834L408.888 188.838L409.799 189.25ZM376.799 230.5L377.376 231.317L377.382 231.312L376.799 230.5ZM354.299 193.25L355.101 193.847L355.101 193.847L354.299 193.25ZM367.549 164.5L368.516 164.756L368.516 164.756L367.549 164.5ZM366.549 111L365.749 111.6L365.761 111.616L365.774 111.632L366.549 111ZM330.799 115.75L331.601 116.347L331.601 116.347L330.799 115.75ZM317.549 144.5L318.516 144.756L318.516 144.756L317.549 144.5ZM328.799 244.5C308.839 244.5 293.114 238.651 281.506 227.043L280.092 228.457C292.15 240.515 308.425 246.5 328.799 246.5V244.5ZM281.516 227.053C270.075 215.286 264.299 198.979 264.299 178H262.299C262.299 199.355 268.189 216.214 280.082 228.447L281.516 227.053ZM264.299 178C264.299 156.791 268.192 137.601 275.96 120.412L274.138 119.588C266.239 137.066 262.299 156.542 262.299 178H264.299ZM275.958 120.416C283.893 103.058 294.869 89.4541 308.876 79.567L307.722 77.933C293.396 88.0459 282.205 101.942 274.139 119.584L275.958 120.416ZM308.882 79.5624C322.875 69.5207 338.67 64.5 356.299 64.5V62.5C338.261 62.5 322.056 67.646 307.716 77.9375L308.882 79.5624ZM356.299 64.5C376.255 64.5 391.891 70.4296 403.332 82.1971L404.766 80.8029C392.873 68.5704 376.676 62.5 356.299 62.5V64.5ZM403.342 82.2071C414.941 93.8064 420.799 110.025 420.799 131H422.799C422.799 109.642 416.823 92.8602 404.756 80.7929L403.342 82.2071ZM420.799 131C420.799 152.206 416.824 171.478 408.889 188.834L410.708 189.666C418.774 172.022 422.799 152.461 422.799 131H420.799ZM408.888 188.838C401.12 206.026 390.227 219.632 376.216 229.688L377.382 231.312C391.704 221.034 402.811 207.14 410.71 189.662L408.888 188.838ZM376.222 229.683C362.229 239.56 346.432 244.5 328.799 244.5V246.5C346.832 246.5 363.035 241.44 377.376 231.317L376.222 229.683ZM333.549 206C341.935 206 349.125 201.871 355.101 193.847L353.497 192.653C347.806 200.295 341.162 204 333.549 204V206ZM355.101 193.847C361.024 185.893 365.489 176.188 368.516 164.756L366.582 164.244C363.608 175.478 359.24 184.94 353.497 192.653L355.101 193.847ZM368.516 164.756C371.534 153.352 373.049 142.515 373.049 132.25H371.049C371.049 142.318 369.563 152.982 366.582 164.244L368.516 164.756ZM373.049 132.25C373.049 122.494 371.205 115.132 367.324 110.368L365.774 111.632C369.226 115.868 371.049 122.673 371.049 132.25H373.049ZM367.349 110.4C363.636 105.45 358.322 103 351.549 103V105C357.775 105 362.461 107.216 365.749 111.6L367.349 110.4ZM351.549 103C343.162 103 335.972 107.129 329.997 115.153L331.601 116.347C337.292 108.705 343.936 105 351.549 105V103ZM329.997 115.153C324.074 123.107 319.608 132.812 316.582 144.244L318.516 144.756C321.489 133.522 325.857 124.06 331.601 116.347L329.997 115.153ZM316.582 144.244C313.563 155.648 312.049 166.485 312.049 176.75H314.049C314.049 166.682 315.534 156.018 318.516 144.756L316.582 144.244ZM312.049 176.75C312.049 186.258 313.768 193.569 317.364 198.525C321.004 203.54 326.459 206 333.549 206V204C326.972 204 322.177 201.752 318.983 197.35C315.746 192.889 314.049 186.076 314.049 176.75H312.049ZM590.691 208.5V209.5H591.508L591.671 208.7L590.691 208.5ZM564.691 208.5V207.5H563.873L563.711 208.302L564.691 208.5ZM557.941 242V243H558.76L558.922 242.198L557.941 242ZM509.941 242L508.961 241.802L508.72 243H509.941V242ZM516.691 208.5L517.672 208.698L517.913 207.5H516.691V208.5ZM424.191 208.5L423.21 208.31L422.979 209.5H424.191V208.5ZM430.441 176.25L429.699 175.58L429.513 175.787L429.46 176.06L430.441 176.25ZM528.941 67V66H528.497L528.199 66.3304L528.941 67ZM582.191 67L582.941 67.6617L584.408 66H582.191V67ZM491.941 169.25L491.192 168.588L489.725 170.25H491.941V169.25ZM526.691 169.25V170.25H527.51L527.672 169.448L526.691 169.25ZM532.691 139.5V138.5H531.873L531.711 139.302L532.691 139.5ZM578.441 139.5L579.422 139.698L579.663 138.5H578.441V139.5ZM572.441 169.25L571.461 169.052L571.22 170.25H572.441V169.25ZM598.691 169.25L599.671 169.45L599.916 168.25H598.691V169.25ZM590.691 207.5H564.691V209.5H590.691V207.5ZM563.711 208.302L556.961 241.802L558.922 242.198L565.672 208.698L563.711 208.302ZM557.941 241H509.941V243H557.941V241ZM510.922 242.198L517.672 208.698L515.711 208.302L508.961 241.802L510.922 242.198ZM516.691 207.5H424.191V209.5H516.691V207.5ZM425.173 208.69L431.423 176.44L429.46 176.06L423.21 208.31L425.173 208.69ZM431.184 176.92L529.684 67.6696L528.199 66.3304L429.699 175.58L431.184 176.92ZM528.941 68H582.191V66H528.941V68ZM581.442 66.3382L491.192 168.588L492.691 169.912L582.941 67.6617L581.442 66.3382ZM491.941 170.25H526.691V168.25H491.941V170.25ZM527.672 169.448L533.672 139.698L531.711 139.302L525.711 169.052L527.672 169.448ZM532.691 140.5H578.441V138.5H532.691V140.5ZM577.461 139.302L571.461 169.052L573.422 169.448L579.422 139.698L577.461 139.302ZM572.441 170.25H598.691V168.25H572.441V170.25ZM597.712 169.05L589.712 208.3L591.671 208.7L599.671 169.45L597.712 169.05Z" fill="black"/>
<path d="M244.5 208.5V209.5H245.317L245.48 208.7L244.5 208.5ZM218.5 208.5V207.5H217.681L217.52 208.302L218.5 208.5ZM211.75 242V243H212.569L212.73 242.198L211.75 242ZM163.75 242L162.77 241.802L162.528 243H163.75V242ZM170.5 208.5L171.48 208.698L171.722 207.5H170.5V208.5ZM78 208.5L77.0183 208.31L76.7876 209.5H78V208.5ZM84.25 176.25L83.5073 175.58L83.3212 175.787L83.2683 176.06L84.25 176.25ZM182.75 67V66H182.305L182.007 66.3304L182.75 67ZM236 67L236.75 67.6617L238.216 66H236V67ZM145.75 169.25L145 168.588L143.534 170.25H145.75V169.25ZM180.5 169.25V170.25H181.318L181.48 169.448L180.5 169.25ZM186.5 139.5V138.5H185.682L185.52 139.302L186.5 139.5ZM232.25 139.5L233.23 139.698L233.472 138.5H232.25V139.5ZM226.25 169.25L225.27 169.052L225.028 170.25H226.25V169.25ZM252.5 169.25L253.48 169.45L253.724 168.25H252.5V169.25ZM244.5 207.5H218.5V209.5H244.5V207.5ZM217.52 208.302L210.77 241.802L212.73 242.198L219.48 208.698L217.52 208.302ZM211.75 241H163.75V243H211.75V241ZM164.73 242.198L171.48 208.698L169.52 208.302L162.77 241.802L164.73 242.198ZM170.5 207.5H78V209.5H170.5V207.5ZM78.9817 208.69L85.2317 176.44L83.2683 176.06L77.0183 208.31L78.9817 208.69ZM84.9927 176.92L183.493 67.6696L182.007 66.3304L83.5073 175.58L84.9927 176.92ZM182.75 68H236V66H182.75V68ZM235.25 66.3382L145 168.588L146.5 169.912L236.75 67.6617L235.25 66.3382ZM145.75 170.25H180.5V168.25H145.75V170.25ZM181.48 169.448L187.48 139.698L185.52 139.302L179.52 169.052L181.48 169.448ZM186.5 140.5H232.25V138.5H186.5V140.5ZM231.27 139.302L225.27 169.052L227.23 169.448L233.23 139.698L231.27 139.302ZM226.25 170.25H252.5V168.25H226.25V170.25ZM251.52 169.05L243.52 208.3L245.48 208.7L253.48 169.45L251.52 169.05ZM280.799 227.75L280.082 228.447L280.092 228.457L280.799 227.75ZM275.049 120L274.139 119.584L274.138 119.588L275.049 120ZM308.299 78.75L308.876 79.567L308.882 79.5624L308.299 78.75ZM404.049 81.5L403.332 82.1971L403.342 82.2071L404.049 81.5ZM409.799 189.25L408.889 188.834L408.888 188.838L409.799 189.25ZM376.799 230.5L377.376 231.317L377.382 231.312L376.799 230.5ZM354.299 193.25L355.101 193.847L355.101 193.847L354.299 193.25ZM367.549 164.5L368.516 164.756L368.516 164.756L367.549 164.5ZM366.549 111L365.749 111.6L365.761 111.616L365.774 111.632L366.549 111ZM330.799 115.75L331.601 116.347L331.601 116.347L330.799 115.75ZM317.549 144.5L318.516 144.756L318.516 144.756L317.549 144.5ZM328.799 244.5C308.839 244.5 293.114 238.651 281.506 227.043L280.092 228.457C292.15 240.515 308.425 246.5 328.799 246.5V244.5ZM281.516 227.053C270.075 215.286 264.299 198.979 264.299 178H262.299C262.299 199.355 268.189 216.214 280.082 228.447L281.516 227.053ZM264.299 178C264.299 156.791 268.192 137.601 275.96 120.412L274.138 119.588C266.239 137.066 262.299 156.542 262.299 178H264.299ZM275.958 120.416C283.893 103.058 294.869 89.4541 308.876 79.567L307.722 77.933C293.396 88.0459 282.205 101.942 274.139 119.584L275.958 120.416ZM308.882 79.5624C322.875 69.5207 338.67 64.5 356.299 64.5V62.5C338.261 62.5 322.056 67.646 307.716 77.9375L308.882 79.5624ZM356.299 64.5C376.255 64.5 391.891 70.4296 403.332 82.1971L404.766 80.8029C392.873 68.5704 376.676 62.5 356.299 62.5V64.5ZM403.342 82.2071C414.941 93.8064 420.799 110.025 420.799 131H422.799C422.799 109.642 416.823 92.8602 404.756 80.7929L403.342 82.2071ZM420.799 131C420.799 152.206 416.824 171.478 408.889 188.834L410.708 189.666C418.774 172.022 422.799 152.461 422.799 131H420.799ZM408.888 188.838C401.12 206.026 390.227 219.632 376.216 229.688L377.382 231.312C391.704 221.034 402.811 207.14 410.71 189.662L408.888 188.838ZM376.222 229.683C362.229 239.56 346.432 244.5 328.799 244.5V246.5C346.832 246.5 363.035 241.44 377.376 231.317L376.222 229.683ZM333.549 206C341.935 206 349.125 201.871 355.101 193.847L353.497 192.653C347.806 200.295 341.162 204 333.549 204V206ZM355.101 193.847C361.024 185.893 365.489 176.188 368.516 164.756L366.582 164.244C363.608 175.478 359.24 184.94 353.497 192.653L355.101 193.847ZM368.516 164.756C371.534 153.352 373.049 142.515 373.049 132.25H371.049C371.049 142.318 369.563 152.982 366.582 164.244L368.516 164.756ZM373.049 132.25C373.049 122.494 371.205 115.132 367.324 110.368L365.774 111.632C369.226 115.868 371.049 122.673 371.049 132.25H373.049ZM367.349 110.4C363.636 105.45 358.322 103 351.549 103V105C357.775 105 362.461 107.216 365.749 111.6L367.349 110.4ZM351.549 103C343.162 103 335.972 107.129 329.997 115.153L331.601 116.347C337.292 108.705 343.936 105 351.549 105V103ZM329.997 115.153C324.074 123.107 319.608 132.812 316.582 144.244L318.516 144.756C321.489 133.522 325.857 124.06 331.601 116.347L329.997 115.153ZM316.582 144.244C313.563 155.648 312.049 166.485 312.049 176.75H314.049C314.049 166.682 315.534 156.018 318.516 144.756L316.582 144.244ZM312.049 176.75C312.049 186.258 313.768 193.569 317.364 198.525C321.004 203.54 326.459 206 333.549 206V204C326.972 204 322.177 201.752 318.983 197.35C315.746 192.889 314.049 186.076 314.049 176.75H312.049ZM590.691 208.5V209.5H591.508L591.671 208.7L590.691 208.5ZM564.691 208.5V207.5H563.873L563.711 208.302L564.691 208.5ZM557.941 242V243H558.76L558.922 242.198L557.941 242ZM509.941 242L508.961 241.802L508.72 243H509.941V242ZM516.691 208.5L517.672 208.698L517.913 207.5H516.691V208.5ZM424.191 208.5L423.21 208.31L422.979 209.5H424.191V208.5ZM430.441 176.25L429.699 175.58L429.513 175.787L429.46 176.06L430.441 176.25ZM528.941 67V66H528.497L528.199 66.3304L528.941 67ZM582.191 67L582.941 67.6617L584.408 66H582.191V67ZM491.941 169.25L491.192 168.588L489.725 170.25H491.941V169.25ZM526.691 169.25V170.25H527.51L527.672 169.448L526.691 169.25ZM532.691 139.5V138.5H531.873L531.711 139.302L532.691 139.5ZM578.441 139.5L579.422 139.698L579.663 138.5H578.441V139.5ZM572.441 169.25L571.461 169.052L571.22 170.25H572.441V169.25ZM598.691 169.25L599.671 169.45L599.916 168.25H598.691V169.25ZM590.691 207.5H564.691V209.5H590.691V207.5ZM563.711 208.302L556.961 241.802L558.922 242.198L565.672 208.698L563.711 208.302ZM557.941 241H509.941V243H557.941V241ZM510.922 242.198L517.672 208.698L515.711 208.302L508.961 241.802L510.922 242.198ZM516.691 207.5H424.191V209.5H516.691V207.5ZM425.173 208.69L431.423 176.44L429.46 176.06L423.21 208.31L425.173 208.69ZM431.184 176.92L529.684 67.6696L528.199 66.3304L429.699 175.58L431.184 176.92ZM528.941 68H582.191V66H528.941V68ZM581.442 66.3382L491.192 168.588L492.691 169.912L582.941 67.6617L581.442 66.3382ZM491.941 170.25H526.691V168.25H491.941V170.25ZM527.672 169.448L533.672 139.698L531.711 139.302L525.711 169.052L527.672 169.448ZM532.691 140.5H578.441V138.5H532.691V140.5ZM577.461 139.302L571.461 169.052L573.422 169.448L579.422 139.698L577.461 139.302ZM572.441 170.25H598.691V168.25H572.441V170.25ZM597.712 169.05L589.712 208.3L591.671 208.7L599.671 169.45L597.712 169.05Z" fill="black"/>
<path d="M262.5 208.5H236.5L229.75 242H181.75L188.5 208.5H96L102.25 176.25L200.75 67H254L163.75 169.25H198.5L204.5 139.5H250.25L244.25 169.25H270.5L262.5 208.5ZM346.799 245.5C326.632 245.5 310.632 239.583 298.799 227.75C287.132 215.75 281.299 199.167 281.299 178C281.299 156.667 285.215 137.333 293.049 120C301.049 102.5 312.132 88.75 326.299 78.75C340.466 68.5833 356.466 63.5 374.299 63.5C394.466 63.5 410.382 69.5 422.049 81.5C433.882 93.3333 439.799 109.833 439.799 131C439.799 152.333 435.799 171.75 427.799 189.25C419.966 206.583 408.966 220.333 394.799 230.5C380.632 240.5 364.632 245.5 346.799 245.5ZM351.549 205C359.549 205 366.465 201.083 372.299 193.25C378.132 185.417 382.549 175.833 385.549 164.5C388.549 153.167 390.049 142.417 390.049 132.25C390.049 122.583 388.215 115.5 384.549 111C381.049 106.333 376.049 104 369.549 104C361.549 104 354.632 107.917 348.799 115.75C342.966 123.583 338.549 133.167 335.549 144.5C332.549 155.833 331.049 166.583 331.049 176.75C331.049 195.583 337.882 205 351.549 205ZM608.691 208.5H582.691L575.941 242H527.941L534.691 208.5H442.191L448.441 176.25L546.941 67H600.191L509.941 169.25H544.691L550.691 139.5H596.441L590.441 169.25H616.691L608.691 208.5Z" fill="#FF002B"/>
<path d="M287.5 208.5V209.5H288.317L288.48 208.7L287.5 208.5ZM261.5 208.5V207.5H260.681L260.52 208.302L261.5 208.5ZM254.75 242V243H255.569L255.73 242.198L254.75 242ZM206.75 242L205.77 241.802L205.528 243H206.75V242ZM213.5 208.5L214.48 208.698L214.722 207.5H213.5V208.5ZM121 208.5L120.018 208.31L119.788 209.5H121V208.5ZM127.25 176.25L126.507 175.58L126.321 175.787L126.268 176.06L127.25 176.25ZM225.75 67V66H225.305L225.007 66.3304L225.75 67ZM279 67L279.75 67.6617L281.216 66H279V67ZM188.75 169.25L188 168.588L186.534 170.25H188.75V169.25ZM223.5 169.25V170.25H224.318L224.48 169.448L223.5 169.25ZM229.5 139.5V138.5H228.682L228.52 139.302L229.5 139.5ZM275.25 139.5L276.23 139.698L276.472 138.5H275.25V139.5ZM269.25 169.25L268.27 169.052L268.028 170.25H269.25V169.25ZM295.5 169.25L296.48 169.45L296.724 168.25H295.5V169.25ZM287.5 207.5H261.5V209.5H287.5V207.5ZM260.52 208.302L253.77 241.802L255.73 242.198L262.48 208.698L260.52 208.302ZM254.75 241H206.75V243H254.75V241ZM207.73 242.198L214.48 208.698L212.52 208.302L205.77 241.802L207.73 242.198ZM213.5 207.5H121V209.5H213.5V207.5ZM121.982 208.69L128.232 176.44L126.268 176.06L120.018 208.31L121.982 208.69ZM127.993 176.92L226.493 67.6696L225.007 66.3304L126.507 175.58L127.993 176.92ZM225.75 68H279V66H225.75V68ZM278.25 66.3382L188 168.588L189.5 169.912L279.75 67.6617L278.25 66.3382ZM188.75 170.25H223.5V168.25H188.75V170.25ZM224.48 169.448L230.48 139.698L228.52 139.302L222.52 169.052L224.48 169.448ZM229.5 140.5H275.25V138.5H229.5V140.5ZM274.27 139.302L268.27 169.052L270.23 169.448L276.23 139.698L274.27 139.302ZM269.25 170.25H295.5V168.25H269.25V170.25ZM294.52 169.05L286.52 208.3L288.48 208.7L296.48 169.45L294.52 169.05ZM323.799 227.75L323.082 228.447L323.092 228.457L323.799 227.75ZM318.049 120L317.139 119.584L317.138 119.588L318.049 120ZM351.299 78.75L351.876 79.567L351.882 79.5624L351.299 78.75ZM447.049 81.5L446.332 82.1971L446.342 82.2071L447.049 81.5ZM452.799 189.25L451.889 188.834L451.888 188.838L452.799 189.25ZM419.799 230.5L420.376 231.317L420.382 231.312L419.799 230.5ZM397.299 193.25L398.101 193.847L398.101 193.847L397.299 193.25ZM410.549 164.5L411.516 164.756L411.516 164.756L410.549 164.5ZM409.549 111L408.749 111.6L408.761 111.616L408.774 111.632L409.549 111ZM373.799 115.75L374.601 116.347L374.601 116.347L373.799 115.75ZM360.549 144.5L361.516 144.756L361.516 144.756L360.549 144.5ZM371.799 244.5C351.839 244.5 336.114 238.651 324.506 227.043L323.092 228.457C335.15 240.515 351.425 246.5 371.799 246.5V244.5ZM324.516 227.053C313.075 215.286 307.299 198.979 307.299 178H305.299C305.299 199.355 311.189 216.214 323.082 228.447L324.516 227.053ZM307.299 178C307.299 156.791 311.192 137.601 318.96 120.412L317.138 119.588C309.239 137.066 305.299 156.542 305.299 178H307.299ZM318.958 120.416C326.893 103.058 337.869 89.4541 351.876 79.567L350.722 77.933C336.396 88.0459 325.205 101.942 317.139 119.584L318.958 120.416ZM351.882 79.5624C365.875 69.5207 381.67 64.5 399.299 64.5V62.5C381.261 62.5 365.056 67.646 350.716 77.9375L351.882 79.5624ZM399.299 64.5C419.255 64.5 434.891 70.4296 446.332 82.1971L447.766 80.8029C435.873 68.5704 419.676 62.5 399.299 62.5V64.5ZM446.342 82.2071C457.941 93.8064 463.799 110.025 463.799 131H465.799C465.799 109.642 459.823 92.8602 447.756 80.7929L446.342 82.2071ZM463.799 131C463.799 152.206 459.824 171.478 451.889 188.834L453.708 189.666C461.774 172.022 465.799 152.461 465.799 131H463.799ZM451.888 188.838C444.12 206.026 433.227 219.632 419.216 229.688L420.382 231.312C434.704 221.034 445.811 207.14 453.71 189.662L451.888 188.838ZM419.222 229.683C405.229 239.56 389.432 244.5 371.799 244.5V246.5C389.832 246.5 406.035 241.44 420.376 231.317L419.222 229.683ZM376.549 206C384.935 206 392.125 201.871 398.101 193.847L396.497 192.653C390.806 200.295 384.162 204 376.549 204V206ZM398.101 193.847C404.024 185.893 408.489 176.188 411.516 164.756L409.582 164.244C406.608 175.478 402.24 184.94 396.497 192.653L398.101 193.847ZM411.516 164.756C414.534 153.352 416.049 142.515 416.049 132.25H414.049C414.049 142.318 412.563 152.982 409.582 164.244L411.516 164.756ZM416.049 132.25C416.049 122.494 414.205 115.132 410.324 110.368L408.774 111.632C412.226 115.868 414.049 122.673 414.049 132.25H416.049ZM410.349 110.4C406.636 105.45 401.322 103 394.549 103V105C400.775 105 405.461 107.216 408.749 111.6L410.349 110.4ZM394.549 103C386.162 103 378.972 107.129 372.997 115.153L374.601 116.347C380.292 108.705 386.936 105 394.549 105V103ZM372.997 115.153C367.074 123.107 362.608 132.812 359.582 144.244L361.516 144.756C364.489 133.522 368.857 124.06 374.601 116.347L372.997 115.153ZM359.582 144.244C356.563 155.648 355.049 166.485 355.049 176.75H357.049C357.049 166.682 358.534 156.018 361.516 144.756L359.582 144.244ZM355.049 176.75C355.049 186.258 356.768 193.569 360.364 198.525C364.004 203.54 369.459 206 376.549 206V204C369.972 204 365.177 201.752 361.983 197.35C358.746 192.889 357.049 186.076 357.049 176.75H355.049ZM633.691 208.5V209.5H634.508L634.671 208.7L633.691 208.5ZM607.691 208.5V207.5H606.873L606.711 208.302L607.691 208.5ZM600.941 242V243H601.76L601.922 242.198L600.941 242ZM552.941 242L551.961 241.802L551.72 243H552.941V242ZM559.691 208.5L560.672 208.698L560.913 207.5H559.691V208.5ZM467.191 208.5L466.21 208.31L465.979 209.5H467.191V208.5ZM473.441 176.25L472.699 175.58L472.513 175.787L472.46 176.06L473.441 176.25ZM571.941 67V66H571.497L571.199 66.3304L571.941 67ZM625.191 67L625.941 67.6617L627.408 66H625.191V67ZM534.941 169.25L534.192 168.588L532.725 170.25H534.941V169.25ZM569.691 169.25V170.25H570.51L570.672 169.448L569.691 169.25ZM575.691 139.5V138.5H574.873L574.711 139.302L575.691 139.5ZM621.441 139.5L622.422 139.698L622.663 138.5H621.441V139.5ZM615.441 169.25L614.461 169.052L614.22 170.25H615.441V169.25ZM641.691 169.25L642.671 169.45L642.916 168.25H641.691V169.25ZM633.691 207.5H607.691V209.5H633.691V207.5ZM606.711 208.302L599.961 241.802L601.922 242.198L608.672 208.698L606.711 208.302ZM600.941 241H552.941V243H600.941V241ZM553.922 242.198L560.672 208.698L558.711 208.302L551.961 241.802L553.922 242.198ZM559.691 207.5H467.191V209.5H559.691V207.5ZM468.173 208.69L474.423 176.44L472.46 176.06L466.21 208.31L468.173 208.69ZM474.184 176.92L572.684 67.6696L571.199 66.3304L472.699 175.58L474.184 176.92ZM571.941 68H625.191V66H571.941V68ZM624.442 66.3382L534.192 168.588L535.691 169.912L625.941 67.6617L624.442 66.3382ZM534.941 170.25H569.691V168.25H534.941V170.25ZM570.672 169.448L576.672 139.698L574.711 139.302L568.711 169.052L570.672 169.448ZM575.691 140.5H621.441V138.5H575.691V140.5ZM620.461 139.302L614.461 169.052L616.422 169.448L622.422 139.698L620.461 139.302ZM615.441 170.25H641.691V168.25H615.441V170.25ZM640.712 169.05L632.712 208.3L634.671 208.7L642.671 169.45L640.712 169.05Z" fill="black"/>
<path d="M287.5 208.5V209.5H288.317L288.48 208.7L287.5 208.5ZM261.5 208.5V207.5H260.681L260.52 208.302L261.5 208.5ZM254.75 242V243H255.569L255.73 242.198L254.75 242ZM206.75 242L205.77 241.802L205.528 243H206.75V242ZM213.5 208.5L214.48 208.698L214.722 207.5H213.5V208.5ZM121 208.5L120.018 208.31L119.788 209.5H121V208.5ZM127.25 176.25L126.507 175.58L126.321 175.787L126.268 176.06L127.25 176.25ZM225.75 67V66H225.305L225.007 66.3304L225.75 67ZM279 67L279.75 67.6617L281.216 66H279V67ZM188.75 169.25L188 168.588L186.534 170.25H188.75V169.25ZM223.5 169.25V170.25H224.318L224.48 169.448L223.5 169.25ZM229.5 139.5V138.5H228.682L228.52 139.302L229.5 139.5ZM275.25 139.5L276.23 139.698L276.472 138.5H275.25V139.5ZM269.25 169.25L268.27 169.052L268.028 170.25H269.25V169.25ZM295.5 169.25L296.48 169.45L296.724 168.25H295.5V169.25ZM287.5 207.5H261.5V209.5H287.5V207.5ZM260.52 208.302L253.77 241.802L255.73 242.198L262.48 208.698L260.52 208.302ZM254.75 241H206.75V243H254.75V241ZM207.73 242.198L214.48 208.698L212.52 208.302L205.77 241.802L207.73 242.198ZM213.5 207.5H121V209.5H213.5V207.5ZM121.982 208.69L128.232 176.44L126.268 176.06L120.018 208.31L121.982 208.69ZM127.993 176.92L226.493 67.6696L225.007 66.3304L126.507 175.58L127.993 176.92ZM225.75 68H279V66H225.75V68ZM278.25 66.3382L188 168.588L189.5 169.912L279.75 67.6617L278.25 66.3382ZM188.75 170.25H223.5V168.25H188.75V170.25ZM224.48 169.448L230.48 139.698L228.52 139.302L222.52 169.052L224.48 169.448ZM229.5 140.5H275.25V138.5H229.5V140.5ZM274.27 139.302L268.27 169.052L270.23 169.448L276.23 139.698L274.27 139.302ZM269.25 170.25H295.5V168.25H269.25V170.25ZM294.52 169.05L286.52 208.3L288.48 208.7L296.48 169.45L294.52 169.05ZM323.799 227.75L323.082 228.447L323.092 228.457L323.799 227.75ZM318.049 120L317.139 119.584L317.138 119.588L318.049 120ZM351.299 78.75L351.876 79.567L351.882 79.5624L351.299 78.75ZM447.049 81.5L446.332 82.1971L446.342 82.2071L447.049 81.5ZM452.799 189.25L451.889 188.834L451.888 188.838L452.799 189.25ZM419.799 230.5L420.376 231.317L420.382 231.312L419.799 230.5ZM397.299 193.25L398.101 193.847L398.101 193.847L397.299 193.25ZM410.549 164.5L411.516 164.756L411.516 164.756L410.549 164.5ZM409.549 111L408.749 111.6L408.761 111.616L408.774 111.632L409.549 111ZM373.799 115.75L374.601 116.347L374.601 116.347L373.799 115.75ZM360.549 144.5L361.516 144.756L361.516 144.756L360.549 144.5ZM371.799 244.5C351.839 244.5 336.114 238.651 324.506 227.043L323.092 228.457C335.15 240.515 351.425 246.5 371.799 246.5V244.5ZM324.516 227.053C313.075 215.286 307.299 198.979 307.299 178H305.299C305.299 199.355 311.189 216.214 323.082 228.447L324.516 227.053ZM307.299 178C307.299 156.791 311.192 137.601 318.96 120.412L317.138 119.588C309.239 137.066 305.299 156.542 305.299 178H307.299ZM318.958 120.416C326.893 103.058 337.869 89.4541 351.876 79.567L350.722 77.933C336.396 88.0459 325.205 101.942 317.139 119.584L318.958 120.416ZM351.882 79.5624C365.875 69.5207 381.67 64.5 399.299 64.5V62.5C381.261 62.5 365.056 67.646 350.716 77.9375L351.882 79.5624ZM399.299 64.5C419.255 64.5 434.891 70.4296 446.332 82.1971L447.766 80.8029C435.873 68.5704 419.676 62.5 399.299 62.5V64.5ZM446.342 82.2071C457.941 93.8064 463.799 110.025 463.799 131H465.799C465.799 109.642 459.823 92.8602 447.756 80.7929L446.342 82.2071ZM463.799 131C463.799 152.206 459.824 171.478 451.889 188.834L453.708 189.666C461.774 172.022 465.799 152.461 465.799 131H463.799ZM451.888 188.838C444.12 206.026 433.227 219.632 419.216 229.688L420.382 231.312C434.704 221.034 445.811 207.14 453.71 189.662L451.888 188.838ZM419.222 229.683C405.229 239.56 389.432 244.5 371.799 244.5V246.5C389.832 246.5 406.035 241.44 420.376 231.317L419.222 229.683ZM376.549 206C384.935 206 392.125 201.871 398.101 193.847L396.497 192.653C390.806 200.295 384.162 204 376.549 204V206ZM398.101 193.847C404.024 185.893 408.489 176.188 411.516 164.756L409.582 164.244C406.608 175.478 402.24 184.94 396.497 192.653L398.101 193.847ZM411.516 164.756C414.534 153.352 416.049 142.515 416.049 132.25H414.049C414.049 142.318 412.563 152.982 409.582 164.244L411.516 164.756ZM416.049 132.25C416.049 122.494 414.205 115.132 410.324 110.368L408.774 111.632C412.226 115.868 414.049 122.673 414.049 132.25H416.049ZM410.349 110.4C406.636 105.45 401.322 103 394.549 103V105C400.775 105 405.461 107.216 408.749 111.6L410.349 110.4ZM394.549 103C386.162 103 378.972 107.129 372.997 115.153L374.601 116.347C380.292 108.705 386.936 105 394.549 105V103ZM372.997 115.153C367.074 123.107 362.608 132.812 359.582 144.244L361.516 144.756C364.489 133.522 368.857 124.06 374.601 116.347L372.997 115.153ZM359.582 144.244C356.563 155.648 355.049 166.485 355.049 176.75H357.049C357.049 166.682 358.534 156.018 361.516 144.756L359.582 144.244ZM355.049 176.75C355.049 186.258 356.768 193.569 360.364 198.525C364.004 203.54 369.459 206 376.549 206V204C369.972 204 365.177 201.752 361.983 197.35C358.746 192.889 357.049 186.076 357.049 176.75H355.049ZM633.691 208.5V209.5H634.508L634.671 208.7L633.691 208.5ZM607.691 208.5V207.5H606.873L606.711 208.302L607.691 208.5ZM600.941 242V243H601.76L601.922 242.198L600.941 242ZM552.941 242L551.961 241.802L551.72 243H552.941V242ZM559.691 208.5L560.672 208.698L560.913 207.5H559.691V208.5ZM467.191 208.5L466.21 208.31L465.979 209.5H467.191V208.5ZM473.441 176.25L472.699 175.58L472.513 175.787L472.46 176.06L473.441 176.25ZM571.941 67V66H571.497L571.199 66.3304L571.941 67ZM625.191 67L625.941 67.6617L627.408 66H625.191V67ZM534.941 169.25L534.192 168.588L532.725 170.25H534.941V169.25ZM569.691 169.25V170.25H570.51L570.672 169.448L569.691 169.25ZM575.691 139.5V138.5H574.873L574.711 139.302L575.691 139.5ZM621.441 139.5L622.422 139.698L622.663 138.5H621.441V139.5ZM615.441 169.25L614.461 169.052L614.22 170.25H615.441V169.25ZM641.691 169.25L642.671 169.45L642.916 168.25H641.691V169.25ZM633.691 207.5H607.691V209.5H633.691V207.5ZM606.711 208.302L599.961 241.802L601.922 242.198L608.672 208.698L606.711 208.302ZM600.941 241H552.941V243H600.941V241ZM553.922 242.198L560.672 208.698L558.711 208.302L551.961 241.802L553.922 242.198ZM559.691 207.5H467.191V209.5H559.691V207.5ZM468.173 208.69L474.423 176.44L472.46 176.06L466.21 208.31L468.173 208.69ZM474.184 176.92L572.684 67.6696L571.199 66.3304L472.699 175.58L474.184 176.92ZM571.941 68H625.191V66H571.941V68ZM624.442 66.3382L534.192 168.588L535.691 169.912L625.941 67.6617L624.442 66.3382ZM534.941 170.25H569.691V168.25H534.941V170.25ZM570.672 169.448L576.672 139.698L574.711 139.302L568.711 169.052L570.672 169.448ZM575.691 140.5H621.441V138.5H575.691V140.5ZM620.461 139.302L614.461 169.052L616.422 169.448L622.422 139.698L620.461 139.302ZM615.441 170.25H641.691V168.25H615.441V170.25ZM640.712 169.05L632.712 208.3L634.671 208.7L642.671 169.45L640.712 169.05Z" fill="black"/>
<path d="M32.544 300.6C39.072 300.6 44.112 302.016 47.664 304.848C51.216 307.68 52.992 311.664 52.992 316.8C52.992 321.024 51.96 324.72 49.896 327.888C47.88 331.056 44.976 333.504 41.184 335.232C37.44 336.96 33.072 337.824 28.08 337.824H18L15.408 351H1.152L11.232 300.6H32.544ZM28.728 326.592C31.896 326.592 34.32 325.848 36 324.36C37.728 322.872 38.592 320.76 38.592 318.024C38.592 315.96 37.896 314.424 36.504 313.416C35.16 312.36 33.216 311.832 30.672 311.832H23.184L20.232 326.592H28.728ZM87.2916 341.208H65.8356L60.0036 351H44.9556L77.2836 300.6H91.3236L103.492 351H89.3076L87.2916 341.208ZM85.1316 330.696L81.7476 314.352L72.0996 330.696H85.1316ZM145.926 324.72H158.526L154.278 345.96C151.686 347.928 148.662 349.44 145.206 350.496C141.798 351.504 138.198 352.008 134.406 352.008C129.318 352.008 124.854 351.096 121.014 349.272C117.222 347.4 114.27 344.784 112.158 341.424C110.094 338.064 109.062 334.2 109.062 329.832C109.062 324.024 110.406 318.84 113.094 314.28C115.782 309.672 119.55 306.072 124.398 303.48C129.246 300.888 134.814 299.592 141.102 299.592C151.086 299.592 158.406 302.688 163.062 308.88L152.838 316.944C151.206 314.928 149.406 313.512 147.438 312.696C145.47 311.832 143.142 311.4 140.454 311.4C137.046 311.4 134.046 312.168 131.454 313.704C128.91 315.192 126.942 317.256 125.55 319.896C124.158 322.536 123.462 325.536 123.462 328.896C123.462 332.352 124.59 335.112 126.846 337.176C129.102 339.192 132.27 340.2 136.35 340.2C138.798 340.2 141.03 339.792 143.046 338.976L145.926 324.72ZM184.196 311.616L182.54 320.112H204.932L202.844 330.768H180.38L178.58 339.984H205.004L202.7 351H162.308L172.388 300.6H211.844L209.612 311.616H184.196ZM289.596 300.6L279.516 351H267.78L251.148 323.352L245.604 351H231.636L241.716 300.6H253.452L270.156 328.176L275.628 300.6H289.596ZM316.86 352.008C311.772 352.008 307.332 351.072 303.54 349.2C299.796 347.328 296.892 344.712 294.828 341.352C292.812 337.992 291.804 334.152 291.804 329.832C291.804 324.072 293.124 318.888 295.764 314.28C298.452 309.672 302.172 306.072 306.924 303.48C311.724 300.888 317.172 299.592 323.268 299.592C328.356 299.592 332.772 300.528 336.516 302.4C340.308 304.272 343.212 306.888 345.228 310.248C347.292 313.608 348.324 317.448 348.324 321.768C348.324 327.528 346.98 332.712 344.292 337.32C341.652 341.928 337.932 345.528 333.132 348.12C328.38 350.712 322.956 352.008 316.86 352.008ZM318.084 340.2C321.252 340.2 324.036 339.408 326.436 337.824C328.836 336.24 330.684 334.128 331.98 331.488C333.276 328.8 333.924 325.848 333.924 322.632C333.924 319.224 332.868 316.512 330.756 314.496C328.692 312.432 325.788 311.4 322.044 311.4C318.876 311.4 316.092 312.192 313.692 313.776C311.292 315.36 309.444 317.496 308.148 320.184C306.852 322.824 306.204 325.752 306.204 328.968C306.204 332.376 307.236 335.112 309.3 337.176C311.412 339.192 314.34 340.2 318.084 340.2ZM368.336 311.904H352.856L355.16 300.6H400.304L398 311.904H382.592L374.744 351H360.488L368.336 311.904ZM438.592 311.616L436.36 322.704H458.608L456.376 333.72H434.2L430.744 351H416.488L426.568 300.6H466.024L463.792 311.616H438.592ZM489.477 352.008C484.389 352.008 479.949 351.072 476.157 349.2C472.413 347.328 469.509 344.712 467.445 341.352C465.429 337.992 464.421 334.152 464.421 329.832C464.421 324.072 465.741 318.888 468.381 314.28C471.069 309.672 474.789 306.072 479.541 303.48C484.341 300.888 489.789 299.592 495.885 299.592C500.973 299.592 505.389 300.528 509.133 302.4C512.925 304.272 515.829 306.888 517.845 310.248C519.909 313.608 520.941 317.448 520.941 321.768C520.941 327.528 519.597 332.712 516.909 337.32C514.269 341.928 510.549 345.528 505.749 348.12C500.997 350.712 495.573 352.008 489.477 352.008ZM490.701 340.2C493.869 340.2 496.653 339.408 499.053 337.824C501.453 336.24 503.301 334.128 504.597 331.488C505.893 328.8 506.541 325.848 506.541 322.632C506.541 319.224 505.485 316.512 503.373 314.496C501.309 312.432 498.405 311.4 494.661 311.4C491.493 311.4 488.709 312.192 486.309 313.776C483.909 315.36 482.061 317.496 480.765 320.184C479.469 322.824 478.821 325.752 478.821 328.968C478.821 332.376 479.853 335.112 481.917 337.176C484.029 339.192 486.957 340.2 490.701 340.2ZM547.704 352.008C543.336 352.008 539.568 351.288 536.4 349.848C533.232 348.36 530.808 346.248 529.128 343.512C527.448 340.776 526.608 337.56 526.608 333.864C526.608 332.328 526.8 330.552 527.184 328.536L532.8 300.6H547.056L541.512 328.32C541.224 329.76 541.08 331.08 541.08 332.28C541.08 337.56 543.864 340.2 549.432 340.2C552.456 340.2 554.832 339.288 556.56 337.464C558.336 335.592 559.656 332.544 560.52 328.32L566.064 300.6H580.104L574.416 329.184C571.344 344.4 562.44 352.008 547.704 352.008ZM637.714 300.6L627.634 351H615.898L599.266 323.352L593.722 351H579.754L589.834 300.6H601.57L618.274 328.176L623.746 300.6H637.714ZM647.841 300.6H669.729C674.913 300.6 679.401 301.464 683.193 303.192C686.985 304.872 689.889 307.32 691.905 310.536C693.969 313.704 695.001 317.448 695.001 321.768C695.001 327.624 693.657 332.76 690.969 337.176C688.329 341.592 684.633 345 679.881 347.4C675.129 349.8 669.681 351 663.537 351H637.761L647.841 300.6ZM663.969 339.624C667.425 339.624 670.401 338.904 672.897 337.464C675.441 335.976 677.361 333.96 678.657 331.416C679.953 328.824 680.601 325.896 680.601 322.632C680.601 319.224 679.545 316.608 677.433 314.784C675.321 312.912 672.225 311.976 668.145 311.976H659.793L654.321 339.624H663.969Z" fill="#BF0020"/>
<path d="M40.544 300.6C47.072 300.6 52.112 302.016 55.664 304.848C59.216 307.68 60.992 311.664 60.992 316.8C60.992 321.024 59.96 324.72 57.896 327.888C55.88 331.056 52.976 333.504 49.184 335.232C45.44 336.96 41.072 337.824 36.08 337.824H26L23.408 351H9.152L19.232 300.6H40.544ZM36.728 326.592C39.896 326.592 42.32 325.848 44 324.36C45.728 322.872 46.592 320.76 46.592 318.024C46.592 315.96 45.896 314.424 44.504 313.416C43.16 312.36 41.216 311.832 38.672 311.832H31.184L28.232 326.592H36.728ZM95.2916 341.208H73.8356L68.0036 351H52.9556L85.2836 300.6H99.3236L111.492 351H97.3076L95.2916 341.208ZM93.1316 330.696L89.7476 314.352L80.0996 330.696H93.1316ZM153.926 324.72H166.526L162.278 345.96C159.686 347.928 156.662 349.44 153.206 350.496C149.798 351.504 146.198 352.008 142.406 352.008C137.318 352.008 132.854 351.096 129.014 349.272C125.222 347.4 122.27 344.784 120.158 341.424C118.094 338.064 117.062 334.2 117.062 329.832C117.062 324.024 118.406 318.84 121.094 314.28C123.782 309.672 127.55 306.072 132.398 303.48C137.246 300.888 142.814 299.592 149.102 299.592C159.086 299.592 166.406 302.688 171.062 308.88L160.838 316.944C159.206 314.928 157.406 313.512 155.438 312.696C153.47 311.832 151.142 311.4 148.454 311.4C145.046 311.4 142.046 312.168 139.454 313.704C136.91 315.192 134.942 317.256 133.55 319.896C132.158 322.536 131.462 325.536 131.462 328.896C131.462 332.352 132.59 335.112 134.846 337.176C137.102 339.192 140.27 340.2 144.35 340.2C146.798 340.2 149.03 339.792 151.046 338.976L153.926 324.72ZM192.196 311.616L190.54 320.112H212.932L210.844 330.768H188.38L186.58 339.984H213.004L210.7 351H170.308L180.388 300.6H219.844L217.612 311.616H192.196ZM297.596 300.6L287.516 351H275.78L259.148 323.352L253.604 351H239.636L249.716 300.6H261.452L278.156 328.176L283.628 300.6H297.596ZM324.86 352.008C319.772 352.008 315.332 351.072 311.54 349.2C307.796 347.328 304.892 344.712 302.828 341.352C300.812 337.992 299.804 334.152 299.804 329.832C299.804 324.072 301.124 318.888 303.764 314.28C306.452 309.672 310.172 306.072 314.924 303.48C319.724 300.888 325.172 299.592 331.268 299.592C336.356 299.592 340.772 300.528 344.516 302.4C348.308 304.272 351.212 306.888 353.228 310.248C355.292 313.608 356.324 317.448 356.324 321.768C356.324 327.528 354.98 332.712 352.292 337.32C349.652 341.928 345.932 345.528 341.132 348.12C336.38 350.712 330.956 352.008 324.86 352.008ZM326.084 340.2C329.252 340.2 332.036 339.408 334.436 337.824C336.836 336.24 338.684 334.128 339.98 331.488C341.276 328.8 341.924 325.848 341.924 322.632C341.924 319.224 340.868 316.512 338.756 314.496C336.692 312.432 333.788 311.4 330.044 311.4C326.876 311.4 324.092 312.192 321.692 313.776C319.292 315.36 317.444 317.496 316.148 320.184C314.852 322.824 314.204 325.752 314.204 328.968C314.204 332.376 315.236 335.112 317.3 337.176C319.412 339.192 322.34 340.2 326.084 340.2ZM376.336 311.904H360.856L363.16 300.6H408.304L406 311.904H390.592L382.744 351H368.488L376.336 311.904ZM446.592 311.616L444.36 322.704H466.608L464.376 333.72H442.2L438.744 351H424.488L434.568 300.6H474.024L471.792 311.616H446.592ZM497.477 352.008C492.389 352.008 487.949 351.072 484.157 349.2C480.413 347.328 477.509 344.712 475.445 341.352C473.429 337.992 472.421 334.152 472.421 329.832C472.421 324.072 473.741 318.888 476.381 314.28C479.069 309.672 482.789 306.072 487.541 303.48C492.341 300.888 497.789 299.592 503.885 299.592C508.973 299.592 513.389 300.528 517.133 302.4C520.925 304.272 523.829 306.888 525.845 310.248C527.909 313.608 528.941 317.448 528.941 321.768C528.941 327.528 527.597 332.712 524.909 337.32C522.269 341.928 518.549 345.528 513.749 348.12C508.997 350.712 503.573 352.008 497.477 352.008ZM498.701 340.2C501.869 340.2 504.653 339.408 507.053 337.824C509.453 336.24 511.301 334.128 512.597 331.488C513.893 328.8 514.541 325.848 514.541 322.632C514.541 319.224 513.485 316.512 511.373 314.496C509.309 312.432 506.405 311.4 502.661 311.4C499.493 311.4 496.709 312.192 494.309 313.776C491.909 315.36 490.061 317.496 488.765 320.184C487.469 322.824 486.821 325.752 486.821 328.968C486.821 332.376 487.853 335.112 489.917 337.176C492.029 339.192 494.957 340.2 498.701 340.2ZM555.704 352.008C551.336 352.008 547.568 351.288 544.4 349.848C541.232 348.36 538.808 346.248 537.128 343.512C535.448 340.776 534.608 337.56 534.608 333.864C534.608 332.328 534.8 330.552 535.184 328.536L540.8 300.6H555.056L549.512 328.32C549.224 329.76 549.08 331.08 549.08 332.28C549.08 337.56 551.864 340.2 557.432 340.2C560.456 340.2 562.832 339.288 564.56 337.464C566.336 335.592 567.656 332.544 568.52 328.32L574.064 300.6H588.104L582.416 329.184C579.344 344.4 570.44 352.008 555.704 352.008ZM645.714 300.6L635.634 351H623.898L607.266 323.352L601.722 351H587.754L597.834 300.6H609.57L626.274 328.176L631.746 300.6H645.714ZM655.841 300.6H677.729C682.913 300.6 687.401 301.464 691.193 303.192C694.985 304.872 697.889 307.32 699.905 310.536C701.969 313.704 703.001 317.448 703.001 321.768C703.001 327.624 701.657 332.76 698.969 337.176C696.329 341.592 692.633 345 687.881 347.4C683.129 349.8 677.681 351 671.537 351H645.761L655.841 300.6ZM671.969 339.624C675.425 339.624 678.401 338.904 680.897 337.464C683.441 335.976 685.361 333.96 686.657 331.416C687.953 328.824 688.601 325.896 688.601 322.632C688.601 319.224 687.545 316.608 685.433 314.784C683.321 312.912 680.225 311.976 676.145 311.976H667.793L662.321 339.624H671.969Z" fill="#FF002B"/>
<path d="M40.544 300.6C47.072 300.6 52.112 302.016 55.664 304.848C59.216 307.68 60.992 311.664 60.992 316.8C60.992 321.024 59.96 324.72 57.896 327.888C55.88 331.056 52.976 333.504 49.184 335.232C45.44 336.96 41.072 337.824 36.08 337.824H26L23.408 351H9.152L19.232 300.6H40.544ZM36.728 326.592C39.896 326.592 42.32 325.848 44 324.36C45.728 322.872 46.592 320.76 46.592 318.024C46.592 315.96 45.896 314.424 44.504 313.416C43.16 312.36 41.216 311.832 38.672 311.832H31.184L28.232 326.592H36.728ZM95.2916 341.208H73.8356L68.0036 351H52.9556L85.2836 300.6H99.3236L111.492 351H97.3076L95.2916 341.208ZM93.1316 330.696L89.7476 314.352L80.0996 330.696H93.1316ZM153.926 324.72H166.526L162.278 345.96C159.686 347.928 156.662 349.44 153.206 350.496C149.798 351.504 146.198 352.008 142.406 352.008C137.318 352.008 132.854 351.096 129.014 349.272C125.222 347.4 122.27 344.784 120.158 341.424C118.094 338.064 117.062 334.2 117.062 329.832C117.062 324.024 118.406 318.84 121.094 314.28C123.782 309.672 127.55 306.072 132.398 303.48C137.246 300.888 142.814 299.592 149.102 299.592C159.086 299.592 166.406 302.688 171.062 308.88L160.838 316.944C159.206 314.928 157.406 313.512 155.438 312.696C153.47 311.832 151.142 311.4 148.454 311.4C145.046 311.4 142.046 312.168 139.454 313.704C136.91 315.192 134.942 317.256 133.55 319.896C132.158 322.536 131.462 325.536 131.462 328.896C131.462 332.352 132.59 335.112 134.846 337.176C137.102 339.192 140.27 340.2 144.35 340.2C146.798 340.2 149.03 339.792 151.046 338.976L153.926 324.72ZM192.196 311.616L190.54 320.112H212.932L210.844 330.768H188.38L186.58 339.984H213.004L210.7 351H170.308L180.388 300.6H219.844L217.612 311.616H192.196ZM297.596 300.6L287.516 351H275.78L259.148 323.352L253.604 351H239.636L249.716 300.6H261.452L278.156 328.176L283.628 300.6H297.596ZM324.86 352.008C319.772 352.008 315.332 351.072 311.54 349.2C307.796 347.328 304.892 344.712 302.828 341.352C300.812 337.992 299.804 334.152 299.804 329.832C299.804 324.072 301.124 318.888 303.764 314.28C306.452 309.672 310.172 306.072 314.924 303.48C319.724 300.888 325.172 299.592 331.268 299.592C336.356 299.592 340.772 300.528 344.516 302.4C348.308 304.272 351.212 306.888 353.228 310.248C355.292 313.608 356.324 317.448 356.324 321.768C356.324 327.528 354.98 332.712 352.292 337.32C349.652 341.928 345.932 345.528 341.132 348.12C336.38 350.712 330.956 352.008 324.86 352.008ZM326.084 340.2C329.252 340.2 332.036 339.408 334.436 337.824C336.836 336.24 338.684 334.128 339.98 331.488C341.276 328.8 341.924 325.848 341.924 322.632C341.924 319.224 340.868 316.512 338.756 314.496C336.692 312.432 333.788 311.4 330.044 311.4C326.876 311.4 324.092 312.192 321.692 313.776C319.292 315.36 317.444 317.496 316.148 320.184C314.852 322.824 314.204 325.752 314.204 328.968C314.204 332.376 315.236 335.112 317.3 337.176C319.412 339.192 322.34 340.2 326.084 340.2ZM376.336 311.904H360.856L363.16 300.6H408.304L406 311.904H390.592L382.744 351H368.488L376.336 311.904ZM446.592 311.616L444.36 322.704H466.608L464.376 333.72H442.2L438.744 351H424.488L434.568 300.6H474.024L471.792 311.616H446.592ZM497.477 352.008C492.389 352.008 487.949 351.072 484.157 349.2C480.413 347.328 477.509 344.712 475.445 341.352C473.429 337.992 472.421 334.152 472.421 329.832C472.421 324.072 473.741 318.888 476.381 314.28C479.069 309.672 482.789 306.072 487.541 303.48C492.341 300.888 497.789 299.592 503.885 299.592C508.973 299.592 513.389 300.528 517.133 302.4C520.925 304.272 523.829 306.888 525.845 310.248C527.909 313.608 528.941 317.448 528.941 321.768C528.941 327.528 527.597 332.712 524.909 337.32C522.269 341.928 518.549 345.528 513.749 348.12C508.997 350.712 503.573 352.008 497.477 352.008ZM498.701 340.2C501.869 340.2 504.653 339.408 507.053 337.824C509.453 336.24 511.301 334.128 512.597 331.488C513.893 328.8 514.541 325.848 514.541 322.632C514.541 319.224 513.485 316.512 511.373 314.496C509.309 312.432 506.405 311.4 502.661 311.4C499.493 311.4 496.709 312.192 494.309 313.776C491.909 315.36 490.061 317.496 488.765 320.184C487.469 322.824 486.821 325.752 486.821 328.968C486.821 332.376 487.853 335.112 489.917 337.176C492.029 339.192 494.957 340.2 498.701 340.2ZM555.704 352.008C551.336 352.008 547.568 351.288 544.4 349.848C541.232 348.36 538.808 346.248 537.128 343.512C535.448 340.776 534.608 337.56 534.608 333.864C534.608 332.328 534.8 330.552 535.184 328.536L540.8 300.6H555.056L549.512 328.32C549.224 329.76 549.08 331.08 549.08 332.28C549.08 337.56 551.864 340.2 557.432 340.2C560.456 340.2 562.832 339.288 564.56 337.464C566.336 335.592 567.656 332.544 568.52 328.32L574.064 300.6H588.104L582.416 329.184C579.344 344.4 570.44 352.008 555.704 352.008ZM645.714 300.6L635.634 351H623.898L607.266 323.352L601.722 351H587.754L597.834 300.6H609.57L626.274 328.176L631.746 300.6H645.714ZM655.841 300.6H677.729C682.913 300.6 687.401 301.464 691.193 303.192C694.985 304.872 697.889 307.32 699.905 310.536C701.969 313.704 703.001 317.448 703.001 321.768C703.001 327.624 701.657 332.76 698.969 337.176C696.329 341.592 692.633 345 687.881 347.4C683.129 349.8 677.681 351 671.537 351H645.761L655.841 300.6ZM671.969 339.624C675.425 339.624 678.401 338.904 680.897 337.464C683.441 335.976 685.361 333.96 686.657 331.416C687.953 328.824 688.601 325.896 688.601 322.632C688.601 319.224 687.545 316.608 685.433 314.784C683.321 312.912 680.225 311.976 676.145 311.976H667.793L662.321 339.624H671.969Z" fill="#FF002B"/>
<path d="M58.664 304.848L59.2874 304.066L59.2874 304.066L58.664 304.848ZM60.896 327.888L60.0581 327.342L60.0523 327.351L60.896 327.888ZM52.184 335.232L51.7693 334.322L51.7649 334.324L52.184 335.232ZM29 337.824V336.824H28.1776L28.0188 337.631L29 337.824ZM26.408 351V352H27.2304L27.3892 351.193L26.408 351ZM12.152 351L11.1714 350.804L10.9322 352H12.152V351ZM22.232 300.6V299.6H21.4122L21.2514 300.404L22.232 300.6ZM47 324.36L46.3474 323.602L46.337 323.611L47 324.36ZM47.504 313.416L46.8862 314.202L46.9016 314.214L46.9175 314.226L47.504 313.416ZM34.184 311.832V310.832H33.3642L33.2034 311.636L34.184 311.832ZM31.232 326.592L30.2514 326.396L30.0122 327.592H31.232V326.592ZM43.544 301.6C49.9419 301.6 54.7287 302.989 58.0406 305.63L59.2874 304.066C55.4953 301.043 50.2021 299.6 43.544 299.6V301.6ZM58.0406 305.63C61.3215 308.246 62.992 311.923 62.992 316.8H64.992C64.992 311.405 63.1105 307.114 59.2874 304.066L58.0406 305.63ZM62.992 316.8C62.992 320.854 62.0042 324.355 60.0581 327.342L61.7339 328.434C63.9158 325.085 64.992 321.194 64.992 316.8H62.992ZM60.0523 327.351C58.1514 330.338 55.4053 332.665 51.7693 334.322L52.5987 336.142C56.5467 334.343 59.6086 331.774 61.7397 328.425L60.0523 327.351ZM51.7649 334.324C48.177 335.98 43.9572 336.824 39.08 336.824V338.824C44.1868 338.824 48.703 337.94 52.6031 336.14L51.7649 334.324ZM39.08 336.824H29V338.824H39.08V336.824ZM28.0188 337.631L25.4268 350.807L27.3892 351.193L29.9812 338.017L28.0188 337.631ZM26.408 350H12.152V352H26.408V350ZM13.1326 351.196L23.2126 300.796L21.2514 300.404L11.1714 350.804L13.1326 351.196ZM22.232 301.6H43.544V299.6H22.232V301.6ZM39.728 327.592C43.0404 327.592 45.7371 326.814 47.663 325.109L46.337 323.611C44.9029 324.882 42.7516 325.592 39.728 325.592V327.592ZM47.6525 325.118C49.6453 323.402 50.592 320.987 50.592 318.024H48.592C48.592 320.533 47.8107 322.342 46.3475 323.602L47.6525 325.118ZM50.592 318.024C50.592 315.712 49.7961 313.841 48.0905 312.606L46.9175 314.226C47.9959 315.007 48.592 316.208 48.592 318.024H50.592ZM48.1218 312.63C46.5339 311.382 44.3352 310.832 41.672 310.832V312.832C44.0969 312.832 45.7861 313.338 46.8862 314.202L48.1218 312.63ZM41.672 310.832H34.184V312.832H41.672V310.832ZM33.2034 311.636L30.2514 326.396L32.2126 326.788L35.1646 312.028L33.2034 311.636ZM31.232 327.592H39.728V325.592H31.232V327.592ZM98.2916 341.208L99.271 341.006L99.1067 340.208H98.2916V341.208ZM76.8356 341.208V340.208H76.2672L75.9764 340.696L76.8356 341.208ZM71.0036 351V352H71.5719L71.8627 351.512L71.0036 351ZM55.9556 351L55.1138 350.46L54.1261 352H55.9556V351ZM88.2836 300.6V299.6H87.737L87.4418 300.06L88.2836 300.6ZM102.324 300.6L103.296 300.365L103.111 299.6H102.324V300.6ZM114.492 351V352H115.762L115.464 350.765L114.492 351ZM100.308 351L99.3281 351.202L99.4925 352H100.308V351ZM96.1316 330.696V331.696H97.3598L97.1108 330.493L96.1316 330.696ZM92.7476 314.352L93.7268 314.149L93.2021 311.615L91.8864 313.844L92.7476 314.352ZM83.0996 330.696L82.2384 330.188L81.348 331.696H83.0996V330.696ZM98.2916 340.208H76.8356V342.208H98.2916V340.208ZM75.9764 340.696L70.1444 350.488L71.8627 351.512L77.6947 341.72L75.9764 340.696ZM71.0036 350H55.9556V352H71.0036V350ZM56.7973 351.54L89.1253 301.14L87.4418 300.06L55.1138 350.46L56.7973 351.54ZM88.2836 301.6H102.324V299.6H88.2836V301.6ZM101.351 300.835L113.519 351.235L115.464 350.765L103.296 300.365L101.351 300.835ZM114.492 350H100.308V352H114.492V350ZM101.287 350.798L99.271 341.006L97.3121 341.41L99.3281 351.202L101.287 350.798ZM97.1108 330.493L93.7268 314.149L91.7683 314.555L95.1523 330.899L97.1108 330.493ZM91.8864 313.844L82.2384 330.188L83.9607 331.204L93.6087 314.86L91.8864 313.844ZM83.0996 331.696H96.1316V329.696H83.0996V331.696ZM156.926 324.72V323.72H156.108L155.946 324.522L156.926 324.72ZM169.526 324.72L170.507 324.916L170.746 323.72H169.526V324.72ZM165.278 345.96L165.883 346.756L166.184 346.527L166.259 346.156L165.278 345.96ZM156.206 350.496L156.49 351.455L156.498 351.452L156.206 350.496ZM132.014 349.272L131.571 350.169L131.578 350.172L131.585 350.175L132.014 349.272ZM123.158 341.424L122.306 341.947L122.311 341.956L123.158 341.424ZM124.094 314.28L124.955 314.788L124.958 314.784L124.094 314.28ZM135.398 303.48L134.927 302.598L134.927 302.598L135.398 303.48ZM174.062 308.88L174.681 309.665L175.449 309.06L174.861 308.279L174.062 308.88ZM163.838 316.944L163.061 317.573L163.682 318.341L164.457 317.729L163.838 316.944ZM158.438 312.696L158.036 313.612L158.045 313.616L158.055 313.62L158.438 312.696ZM142.454 313.704L142.959 314.567L142.964 314.564L142.454 313.704ZM136.55 319.896L135.665 319.43L135.665 319.43L136.55 319.896ZM137.846 337.176L137.171 337.914L137.18 337.922L137.846 337.176ZM154.046 338.976L154.421 339.903L154.92 339.701L155.026 339.174L154.046 338.976ZM156.926 325.72H169.526V323.72H156.926V325.72ZM168.545 324.524L164.297 345.764L166.259 346.156L170.507 324.916L168.545 324.524ZM164.673 345.164C162.185 347.053 159.269 348.514 155.914 349.54L156.498 351.452C160.055 350.366 163.187 348.803 165.883 346.756L164.673 345.164ZM155.922 349.537C152.612 350.516 149.108 351.008 145.406 351.008V353.008C149.288 353.008 152.984 352.492 156.49 351.455L155.922 349.537ZM145.406 351.008C140.438 351.008 136.125 350.118 132.443 348.369L131.585 350.175C135.583 352.074 140.198 353.008 145.406 353.008V351.008ZM132.457 348.375C128.819 346.58 126.012 344.085 124.005 340.892L122.311 341.956C124.528 345.483 127.625 348.22 131.571 350.169L132.457 348.375ZM124.01 340.901C122.053 337.715 121.062 334.036 121.062 329.832H119.062C119.062 334.364 120.135 338.413 122.306 341.947L124.01 340.901ZM121.062 329.832C121.062 324.185 122.367 319.179 124.955 314.788L123.233 313.772C120.445 318.501 119.062 323.863 119.062 329.832H121.062ZM124.958 314.784C127.55 310.341 131.179 306.869 135.869 304.362L134.927 302.598C129.921 305.275 126.014 309.003 123.23 313.776L124.958 314.784ZM135.869 304.362C140.553 301.858 145.955 300.592 152.102 300.592V298.592C145.673 298.592 139.939 299.918 134.927 302.598L135.869 304.362ZM152.102 300.592C161.871 300.592 168.848 303.61 173.263 309.481L174.861 308.279C169.964 301.766 162.301 298.592 152.102 298.592V300.592ZM173.443 308.095L163.219 316.159L164.457 317.729L174.681 309.665L173.443 308.095ZM164.615 316.315C162.901 314.197 160.973 312.665 158.821 311.772L158.055 313.62C159.839 314.359 161.511 315.659 163.061 317.573L164.615 316.315ZM158.84 311.78C156.718 310.849 154.247 310.4 151.454 310.4V312.4C154.037 312.4 156.222 312.815 158.036 313.612L158.84 311.78ZM151.454 310.4C147.891 310.4 144.71 311.205 141.944 312.844L142.964 314.564C145.382 313.131 148.201 312.4 151.454 312.4V310.4ZM141.949 312.841C139.242 314.424 137.143 316.627 135.665 319.43L137.435 320.362C138.741 317.885 140.578 315.96 142.959 314.567L141.949 312.841ZM135.665 319.43C134.189 322.231 133.462 325.394 133.462 328.896H135.462C135.462 325.678 136.127 322.841 137.435 320.362L135.665 319.43ZM133.462 328.896C133.462 332.592 134.68 335.635 137.171 337.914L138.521 336.438C136.5 334.589 135.462 332.112 135.462 328.896H133.462ZM137.18 337.922C139.675 340.151 143.111 341.2 147.35 341.2V339.2C143.429 339.2 140.529 338.233 138.512 336.43L137.18 337.922ZM147.35 341.2C149.911 341.2 152.272 340.773 154.421 339.903L153.671 338.049C151.788 338.811 149.685 339.2 147.35 339.2V341.2ZM155.026 339.174L157.906 324.918L155.946 324.522L153.066 338.778L155.026 339.174ZM195.196 311.616V310.616H194.372L194.215 311.425L195.196 311.616ZM193.54 320.112L192.559 319.921L192.327 321.112H193.54V320.112ZM215.932 320.112L216.914 320.304L217.147 319.112H215.932V320.112ZM213.844 330.768V331.768H214.667L214.826 330.96L213.844 330.768ZM191.38 330.768V329.768H190.557L190.399 330.576L191.38 330.768ZM189.58 339.984L188.599 339.792L188.366 340.984H189.58V339.984ZM216.004 339.984L216.983 340.189L217.235 338.984H216.004V339.984ZM213.7 351V352H214.513L214.679 351.205L213.7 351ZM173.308 351L172.328 350.804L172.088 352H173.308V351ZM183.388 300.6V299.6H182.568L182.408 300.404L183.388 300.6ZM222.844 300.6L223.824 300.799L224.067 299.6H222.844V300.6ZM220.612 311.616V312.616H221.43L221.592 311.815L220.612 311.616ZM194.215 311.425L192.559 319.921L194.522 320.303L196.178 311.807L194.215 311.425ZM193.54 321.112H215.932V319.112H193.54V321.112ZM214.951 319.92L212.863 330.576L214.826 330.96L216.914 320.304L214.951 319.92ZM213.844 329.768H191.38V331.768H213.844V329.768ZM190.399 330.576L188.599 339.792L190.562 340.176L192.362 330.96L190.399 330.576ZM189.58 340.984H216.004V338.984H189.58V340.984ZM215.025 339.779L212.721 350.795L214.679 351.205L216.983 340.189L215.025 339.779ZM213.7 350H173.308V352H213.7V350ZM174.289 351.196L184.369 300.796L182.408 300.404L172.328 350.804L174.289 351.196ZM183.388 301.6H222.844V299.6H183.388V301.6ZM221.864 300.401L219.632 311.417L221.592 311.815L223.824 300.799L221.864 300.401ZM220.612 310.616H195.196V312.616H220.612V310.616ZM300.596 300.6L301.577 300.796L301.816 299.6H300.596V300.6ZM290.516 351V352H291.336L291.497 351.196L290.516 351ZM278.78 351L277.923 351.515L278.215 352H278.78V351ZM262.148 323.352L263.005 322.837L261.675 320.625L261.168 323.155L262.148 323.352ZM256.604 351V352H257.424L257.585 351.197L256.604 351ZM242.636 351L241.656 350.804L241.417 352H242.636V351ZM252.716 300.6V299.6H251.897L251.736 300.404L252.716 300.6ZM264.452 300.6L265.308 300.082L265.016 299.6H264.452V300.6ZM281.156 328.176L280.301 328.694L281.636 330.898L282.137 328.371L281.156 328.176ZM286.628 300.6V299.6H285.807L285.648 300.405L286.628 300.6ZM299.616 300.404L289.536 350.804L291.497 351.196L301.577 300.796L299.616 300.404ZM290.516 350H278.78V352H290.516V350ZM279.637 350.485L263.005 322.837L261.291 323.867L277.923 351.515L279.637 350.485ZM261.168 323.155L255.624 350.803L257.585 351.197L263.129 323.549L261.168 323.155ZM256.604 350H242.636V352H256.604V350ZM243.617 351.196L253.697 300.796L251.736 300.404L241.656 350.804L243.617 351.196ZM252.716 301.6H264.452V299.6H252.716V301.6ZM263.597 301.118L280.301 328.694L282.012 327.658L265.308 300.082L263.597 301.118ZM282.137 328.371L287.609 300.795L285.648 300.405L280.175 327.981L282.137 328.371ZM286.628 301.6H300.596V299.6H286.628V301.6ZM314.54 349.2L314.093 350.094L314.098 350.097L314.54 349.2ZM305.828 341.352L304.971 341.867L304.976 341.875L305.828 341.352ZM306.764 314.28L305.9 313.776L305.897 313.783L306.764 314.28ZM317.924 303.48L317.449 302.6L317.445 302.602L317.924 303.48ZM347.516 302.4L347.069 303.294L347.074 303.297L347.516 302.4ZM356.228 310.248L355.371 310.763L355.376 310.771L356.228 310.248ZM355.292 337.32L354.428 336.816L354.425 336.823L355.292 337.32ZM344.132 348.12L343.657 347.24L343.653 347.242L344.132 348.12ZM337.436 337.824L336.885 336.989L336.885 336.989L337.436 337.824ZM342.98 331.488L343.878 331.929L343.881 331.922L342.98 331.488ZM341.756 314.496L341.049 315.203L341.057 315.211L341.066 315.219L341.756 314.496ZM324.692 313.776L325.243 314.611L325.243 314.611L324.692 313.776ZM319.148 320.184L320.046 320.625L320.049 320.618L319.148 320.184ZM320.3 337.176L319.593 337.883L319.601 337.891L319.61 337.899L320.3 337.176ZM327.86 351.008C322.895 351.008 318.612 350.095 314.983 348.303L314.098 350.097C318.052 352.049 322.649 353.008 327.86 353.008V351.008ZM314.987 348.306C311.4 346.512 308.64 344.02 306.68 340.829L304.976 341.875C307.144 345.404 310.193 348.144 314.093 350.094L314.987 348.306ZM306.686 340.838C304.772 337.649 303.804 333.99 303.804 329.832H301.804C301.804 334.314 302.852 338.335 304.971 341.866L306.686 340.838ZM303.804 329.832C303.804 324.231 305.086 319.221 307.632 314.777L305.897 313.783C303.163 318.555 301.804 323.913 301.804 329.832H303.804ZM307.628 314.784C310.223 310.336 313.809 306.864 318.403 304.358L317.445 302.602C312.536 305.28 308.682 309.008 305.9 313.776L307.628 314.784ZM318.399 304.36C323.037 301.856 328.318 300.592 334.268 300.592V298.592C328.026 298.592 322.412 299.92 317.449 302.6L318.399 304.36ZM334.268 300.592C339.234 300.592 343.491 301.505 347.069 303.294L347.963 301.506C344.054 299.551 339.478 298.592 334.268 298.592V300.592ZM347.074 303.297C350.708 305.091 353.461 307.58 355.371 310.762L357.086 309.734C354.963 306.196 351.909 303.453 347.959 301.503L347.074 303.297ZM355.376 310.771C357.334 313.959 358.324 317.615 358.324 321.768H360.324C360.324 317.281 359.25 313.257 357.08 309.725L355.376 310.771ZM358.324 321.768C358.324 327.366 357.02 332.373 354.428 336.816L356.156 337.824C358.94 333.051 360.324 327.69 360.324 321.768H358.324ZM354.425 336.823C351.88 341.265 348.298 344.734 343.657 347.24L344.607 349C349.567 346.322 353.425 342.591 356.16 337.817L354.425 336.823ZM343.653 347.242C339.066 349.744 333.81 351.008 327.86 351.008V353.008C334.102 353.008 339.694 351.68 344.611 348.998L343.653 347.242ZM329.084 341.2C332.427 341.2 335.407 340.361 337.987 338.659L336.885 336.989C334.665 338.455 332.077 339.2 329.084 339.2V341.2ZM337.987 338.659C340.539 336.974 342.505 334.725 343.878 331.929L342.083 331.047C340.863 333.531 339.133 335.506 336.885 336.989L337.987 338.659ZM343.881 331.922C345.247 329.089 345.924 325.986 345.924 322.632H343.924C343.924 325.71 343.305 328.511 342.079 331.054L343.881 331.922ZM345.924 322.632C345.924 319 344.79 316.009 342.447 313.773L341.066 315.219C342.947 317.015 343.924 319.448 343.924 322.632H345.924ZM342.463 313.789C340.163 311.488 336.975 310.4 333.044 310.4V312.4C336.601 312.4 339.222 313.376 341.049 315.203L342.463 313.789ZM333.044 310.4C329.701 310.4 326.721 311.239 324.141 312.941L325.243 314.611C327.463 313.145 330.051 312.4 333.044 312.4V310.4ZM324.141 312.941C321.585 314.629 319.619 316.906 318.247 319.75L320.049 320.618C321.27 318.086 323 316.091 325.243 314.611L324.141 312.941ZM318.251 319.743C316.881 322.533 316.204 325.614 316.204 328.968H318.204C318.204 325.89 318.823 323.115 320.046 320.625L318.251 319.743ZM316.204 328.968C316.204 332.593 317.31 335.6 319.593 337.883L321.007 336.469C319.162 334.624 318.204 332.159 318.204 328.968H316.204ZM319.61 337.899C321.956 340.139 325.159 341.2 329.084 341.2V339.2C325.522 339.2 322.868 338.245 320.991 336.453L319.61 337.899ZM379.336 311.904L380.316 312.101L380.556 310.904H379.336V311.904ZM363.856 311.904L362.876 311.704L362.631 312.904H363.856V311.904ZM366.16 300.6V299.6H365.343L365.18 300.4L366.16 300.6ZM411.304 300.6L412.284 300.8L412.528 299.6H411.304V300.6ZM409 311.904V312.904H409.816L409.98 312.104L409 311.904ZM393.592 311.904V310.904H392.772L392.611 311.707L393.592 311.904ZM385.744 351V352H386.563L386.724 351.197L385.744 351ZM371.488 351L370.507 350.803L370.267 352H371.488V351ZM379.336 310.904H363.856V312.904H379.336V310.904ZM364.836 312.104L367.14 300.8L365.18 300.4L362.876 311.704L364.836 312.104ZM366.16 301.6H411.304V299.6H366.16V301.6ZM410.324 300.4L408.02 311.704L409.98 312.104L412.284 300.8L410.324 300.4ZM409 310.904H393.592V312.904H409V310.904ZM392.611 311.707L384.763 350.803L386.724 351.197L394.572 312.101L392.611 311.707ZM385.744 350H371.488V352H385.744V350ZM372.468 351.197L380.316 312.101L378.355 311.707L370.507 350.803L372.468 351.197ZM449.592 311.616V310.616H448.773L448.612 311.419L449.592 311.616ZM447.36 322.704L446.38 322.507L446.139 323.704H447.36V322.704ZM469.608 322.704L470.588 322.903L470.831 321.704H469.608V322.704ZM467.376 333.72V334.72H468.194L468.356 333.919L467.376 333.72ZM445.2 333.72V332.72H444.38L444.219 333.524L445.2 333.72ZM441.744 351V352H442.564L442.725 351.196L441.744 351ZM427.488 351L426.507 350.804L426.268 352H427.488V351ZM437.568 300.6V299.6H436.748L436.587 300.404L437.568 300.6ZM477.024 300.6L478.004 300.799L478.247 299.6H477.024V300.6ZM474.792 311.616V312.616H475.61L475.772 311.815L474.792 311.616ZM448.612 311.419L446.38 322.507L448.34 322.901L450.572 311.813L448.612 311.419ZM447.36 323.704H469.608V321.704H447.36V323.704ZM468.628 322.505L466.396 333.521L468.356 333.919L470.588 322.903L468.628 322.505ZM467.376 332.72H445.2V334.72H467.376V332.72ZM444.219 333.524L440.763 350.804L442.725 351.196L446.181 333.916L444.219 333.524ZM441.744 350H427.488V352H441.744V350ZM428.469 351.196L438.549 300.796L436.587 300.404L426.507 350.804L428.469 351.196ZM437.568 301.6H477.024V299.6H437.568V301.6ZM476.044 300.401L473.812 311.417L475.772 311.815L478.004 300.799L476.044 300.401ZM474.792 310.616H449.592V312.616H474.792V310.616ZM487.157 349.2L486.71 350.094L486.715 350.097L487.157 349.2ZM478.445 341.352L477.588 341.867L477.593 341.875L478.445 341.352ZM479.381 314.28L478.518 313.776L478.514 313.783L479.381 314.28ZM490.541 303.48L490.066 302.6L490.063 302.602L490.541 303.48ZM520.133 302.4L519.686 303.294L519.691 303.297L520.133 302.4ZM528.845 310.248L527.988 310.763L527.993 310.771L528.845 310.248ZM527.909 337.32L527.046 336.816L527.042 336.823L527.909 337.32ZM516.749 348.12L516.274 347.24L516.271 347.242L516.749 348.12ZM510.053 337.824L509.503 336.989L509.503 336.989L510.053 337.824ZM515.597 331.488L516.495 331.929L516.498 331.922L515.597 331.488ZM514.373 314.496L513.666 315.203L513.674 315.211L513.683 315.219L514.373 314.496ZM497.309 313.776L497.86 314.611L497.86 314.611L497.309 313.776ZM491.765 320.184L492.663 320.625L492.666 320.618L491.765 320.184ZM492.917 337.176L492.21 337.883L492.218 337.891L492.227 337.899L492.917 337.176ZM500.477 351.008C495.512 351.008 491.229 350.095 487.6 348.303L486.715 350.097C490.67 352.049 495.267 353.008 500.477 353.008V351.008ZM487.605 348.306C484.017 346.512 481.258 344.02 479.297 340.829L477.593 341.875C479.761 345.404 482.81 348.144 486.71 350.094L487.605 348.306ZM479.303 340.838C477.389 337.649 476.421 333.99 476.421 329.832H474.421C474.421 334.314 475.469 338.335 477.588 341.866L479.303 340.838ZM476.421 329.832C476.421 324.231 477.703 319.221 480.249 314.777L478.514 313.783C475.78 318.555 474.421 323.913 474.421 329.832H476.421ZM480.245 314.784C482.84 310.336 486.426 306.864 491.02 304.358L490.063 302.602C485.153 305.28 481.299 309.008 478.518 313.776L480.245 314.784ZM491.017 304.36C495.654 301.856 500.935 300.592 506.885 300.592V298.592C500.643 298.592 495.029 299.92 490.066 302.6L491.017 304.36ZM506.885 300.592C511.851 300.592 516.108 301.505 519.686 303.294L520.581 301.506C516.671 299.551 512.096 298.592 506.885 298.592V300.592ZM519.691 303.297C523.325 305.091 526.078 307.58 527.988 310.762L529.703 309.734C527.58 306.196 524.526 303.453 520.576 301.503L519.691 303.297ZM527.993 310.771C529.951 313.959 530.941 317.615 530.941 321.768H532.941C532.941 317.281 531.867 313.257 529.697 309.725L527.993 310.771ZM530.941 321.768C530.941 327.366 529.637 332.373 527.046 336.816L528.773 337.824C531.557 333.051 532.941 327.69 532.941 321.768H530.941ZM527.042 336.823C524.497 341.265 520.915 344.734 516.274 347.24L517.225 349C522.184 346.322 526.042 342.591 528.777 337.817L527.042 336.823ZM516.271 347.242C511.683 349.744 506.427 351.008 500.477 351.008V353.008C506.719 353.008 512.312 351.68 517.228 348.998L516.271 347.242ZM501.701 341.2C505.045 341.2 508.024 340.361 510.604 338.659L509.503 336.989C507.282 338.455 504.694 339.2 501.701 339.2V341.2ZM510.604 338.659C513.156 336.974 515.122 334.725 516.495 331.929L514.7 331.047C513.48 333.531 511.75 335.506 509.503 336.989L510.604 338.659ZM516.498 331.922C517.864 329.089 518.541 325.986 518.541 322.632H516.541C516.541 325.71 515.922 328.511 514.697 331.054L516.498 331.922ZM518.541 322.632C518.541 319 517.407 316.009 515.064 313.773L513.683 315.219C515.564 317.015 516.541 319.448 516.541 322.632H518.541ZM515.08 313.789C512.78 311.488 509.592 310.4 505.661 310.4V312.4C509.219 312.4 511.839 313.376 513.666 315.203L515.08 313.789ZM505.661 310.4C502.318 310.4 499.338 311.239 496.759 312.941L497.86 314.611C500.08 313.145 502.669 312.4 505.661 312.4V310.4ZM496.759 312.941C494.202 314.629 492.236 316.906 490.865 319.75L492.666 320.618C493.887 318.086 495.617 316.091 497.86 314.611L496.759 312.941ZM490.868 319.743C489.498 322.533 488.821 325.614 488.821 328.968H490.821C490.821 325.89 491.44 323.115 492.663 320.625L490.868 319.743ZM488.821 328.968C488.821 332.593 489.927 335.6 492.21 337.883L493.624 336.469C491.779 334.624 490.821 332.159 490.821 328.968H488.821ZM492.227 337.899C494.573 340.139 497.776 341.2 501.701 341.2V339.2C498.139 339.2 495.486 338.245 493.608 336.453L492.227 337.899ZM547.4 349.848L546.975 350.753L546.986 350.758L547.4 349.848ZM540.128 343.512L540.98 342.989L540.128 343.512ZM538.184 328.536L537.204 328.339L537.202 328.349L538.184 328.536ZM543.8 300.6V299.6H542.981L542.82 300.403L543.8 300.6ZM558.056 300.6L559.037 300.796L559.276 299.6H558.056V300.6ZM552.512 328.32L553.493 328.516L553.493 328.516L552.512 328.32ZM567.56 337.464L566.835 336.776L566.834 336.776L567.56 337.464ZM571.52 328.32L572.5 328.52L572.501 328.516L571.52 328.32ZM577.064 300.6V299.6H576.244L576.083 300.404L577.064 300.6ZM591.104 300.6L592.085 300.795L592.323 299.6H591.104V300.6ZM585.416 329.184L586.396 329.382L586.397 329.379L585.416 329.184ZM558.704 351.008C554.443 351.008 550.823 350.306 547.814 348.938L546.986 350.758C550.313 352.27 554.229 353.008 558.704 353.008V351.008ZM547.825 348.943C544.817 347.53 542.549 345.544 540.98 342.989L539.276 344.035C541.067 346.952 543.647 349.19 546.975 350.753L547.825 348.943ZM540.98 342.989C539.411 340.433 538.608 337.404 538.608 333.864H536.608C536.608 337.716 537.485 341.119 539.276 344.035L540.98 342.989ZM538.608 333.864C538.608 332.408 538.79 330.697 539.166 328.723L537.202 328.349C536.81 330.407 536.608 332.248 536.608 333.864H538.608ZM539.164 328.733L544.78 300.797L542.82 300.403L537.204 328.339L539.164 328.733ZM543.8 301.6H558.056V299.6H543.8V301.6ZM557.075 300.404L551.531 328.124L553.493 328.516L559.037 300.796L557.075 300.404ZM551.531 328.124C551.233 329.615 551.08 331.001 551.08 332.28H553.08C553.08 331.159 553.215 329.905 553.493 328.516L551.531 328.124ZM551.08 332.28C551.08 335.088 551.823 337.374 553.48 338.946C555.127 340.507 557.507 341.2 560.432 341.2V339.2C557.789 339.2 555.993 338.573 554.856 337.494C553.729 336.426 553.08 334.752 553.08 332.28H551.08ZM560.432 341.2C563.67 341.2 566.331 340.215 568.286 338.152L566.834 336.776C565.333 338.361 563.242 339.2 560.432 339.2V341.2ZM568.285 338.152C570.25 336.082 571.621 332.818 572.5 328.52L570.54 328.12C569.691 332.27 568.422 335.102 566.835 336.776L568.285 338.152ZM572.501 328.516L578.045 300.796L576.083 300.404L570.539 328.124L572.501 328.516ZM577.064 301.6H591.104V299.6H577.064V301.6ZM590.123 300.405L584.435 328.989L586.397 329.379L592.085 300.795L590.123 300.405ZM584.436 328.986C582.93 336.446 580.018 341.924 575.784 345.542C571.556 349.154 565.897 351.008 558.704 351.008V353.008C566.247 353.008 572.408 351.058 577.084 347.062C581.754 343.072 584.83 337.138 586.396 329.382L584.436 328.986ZM648.714 300.6L649.694 300.796L649.933 299.6H648.714V300.6ZM638.634 351V352H639.453L639.614 351.196L638.634 351ZM626.898 351L626.041 351.515L626.332 352H626.898V351ZM610.266 323.352L611.122 322.837L609.792 320.625L609.285 323.155L610.266 323.352ZM604.722 351V352H605.541L605.702 351.197L604.722 351ZM590.754 351L589.773 350.804L589.534 352H590.754V351ZM600.834 300.6V299.6H600.014L599.853 300.404L600.834 300.6ZM612.57 300.6L613.425 300.082L613.133 299.6H612.57V300.6ZM629.274 328.176L628.418 328.694L629.753 330.898L630.254 328.371L629.274 328.176ZM634.746 300.6V299.6H633.925L633.765 300.405L634.746 300.6ZM647.733 300.404L637.653 350.804L639.614 351.196L649.694 300.796L647.733 300.404ZM638.634 350H626.898V352H638.634V350ZM627.754 350.485L611.122 322.837L609.409 323.867L626.041 351.515L627.754 350.485ZM609.285 323.155L603.741 350.803L605.702 351.197L611.246 323.549L609.285 323.155ZM604.722 350H590.754V352H604.722V350ZM591.734 351.196L601.814 300.796L599.853 300.404L589.773 350.804L591.734 351.196ZM600.834 301.6H612.57V299.6H600.834V301.6ZM611.714 301.118L628.418 328.694L630.129 327.658L613.425 300.082L611.714 301.118ZM630.254 328.371L635.726 300.795L633.765 300.405L628.293 327.981L630.254 328.371ZM634.746 301.6H648.714V299.6H634.746V301.6ZM658.841 300.6V299.6H658.022L657.861 300.404L658.841 300.6ZM694.193 303.192L693.779 304.102L693.788 304.106L694.193 303.192ZM702.905 310.536L702.058 311.067L702.063 311.075L702.068 311.082L702.905 310.536ZM701.969 337.176L701.115 336.656L701.111 336.663L701.969 337.176ZM690.881 347.4L690.431 346.507L690.431 346.507L690.881 347.4ZM648.761 351L647.781 350.804L647.542 352H648.761V351ZM683.897 337.464L684.397 338.33L684.402 338.327L683.897 337.464ZM689.657 331.416L690.548 331.87L690.552 331.863L689.657 331.416ZM688.433 314.784L687.77 315.532L687.78 315.541L688.433 314.784ZM670.793 311.976V310.976H669.972L669.812 311.782L670.793 311.976ZM665.321 339.624L664.34 339.43L664.104 340.624H665.321V339.624ZM658.841 301.6H680.729V299.6H658.841V301.6ZM680.729 301.6C685.804 301.6 690.145 302.446 693.779 304.102L694.608 302.282C690.658 300.482 686.022 299.6 680.729 299.6V301.6ZM693.788 304.106C697.416 305.713 700.158 308.036 702.058 311.067L703.753 310.005C701.621 306.604 698.555 304.031 694.598 302.278L693.788 304.106ZM702.068 311.082C704.011 314.065 705.001 317.613 705.001 321.768H707.001C707.001 317.283 705.928 313.343 703.743 309.99L702.068 311.082ZM705.001 321.768C705.001 327.466 703.696 332.417 701.115 336.656L702.824 337.696C705.619 333.103 707.001 327.782 707.001 321.768H705.001ZM701.111 336.663C698.572 340.911 695.02 344.19 690.431 346.507L691.332 348.293C696.247 345.81 700.087 342.273 702.828 337.689L701.111 336.663ZM690.431 346.507C685.838 348.827 680.549 350 674.537 350V352C680.814 352 686.42 350.773 691.332 348.293L690.431 346.507ZM674.537 350H648.761V352H674.537V350ZM649.742 351.196L659.822 300.796L657.861 300.404L647.781 350.804L649.742 351.196ZM674.969 340.624C678.566 340.624 681.721 339.874 684.397 338.33L683.398 336.598C681.081 337.934 678.285 338.624 674.969 338.624V340.624ZM684.402 338.327C687.106 336.746 689.163 334.59 690.548 331.87L688.766 330.962C687.56 333.33 685.777 335.206 683.392 336.601L684.402 338.327ZM690.552 331.863C691.926 329.116 692.601 326.031 692.601 322.632H690.601C690.601 325.761 689.981 328.532 688.763 330.969L690.552 331.863ZM692.601 322.632C692.601 319.003 691.467 316.083 689.087 314.027L687.78 315.541C689.624 317.133 690.601 319.445 690.601 322.632H692.601ZM689.097 314.036C686.735 311.942 683.362 310.976 679.145 310.976V312.976C683.088 312.976 685.908 313.882 687.77 315.532L689.097 314.036ZM679.145 310.976H670.793V312.976H679.145V310.976ZM669.812 311.782L664.34 339.43L666.302 339.818L671.774 312.17L669.812 311.782ZM665.321 340.624H674.969V338.624H665.321V340.624Z" fill="black"/>
</svg>
