<svg width="17" height="30" viewBox="0 0 17 30" fill="none" xmlns="http://www.w3.org/2000/svg">
<path d="M9.79904 16.25L13.6962 23C14.2735 24 13.5518 25.25 12.3971 25.25H4.60288C3.44818 25.25 2.7265 24 3.30385 23L7.20096 16.25C7.77831 15.25 9.22169 15.25 9.79904 16.25Z" fill="#0F1418" stroke="#FF002B"/>
<path d="M9.79904 10.25L13.6962 17C14.2735 18 13.5518 19.25 12.3971 19.25H4.60288C3.44818 19.25 2.7265 18 3.30385 17L7.20096 10.25C7.77831 9.25 9.22169 9.25 9.79904 10.25Z" fill="#0F1418" stroke="#FF002B"/>
<path d="M9.79904 3.25L13.6962 10C14.2735 11 13.5518 12.25 12.3971 12.25H4.60288C3.44818 12.25 2.7265 11 3.30385 10L7.20096 3.25C7.77831 2.25 9.22169 2.25 9.79904 3.25Z" fill="#0F1418" stroke="#FF002B"/>
</svg>
