<svg width="200" height="200" viewBox="0 0 200 200" fill="none" xmlns="http://www.w3.org/2000/svg">
<mask id="mask0" mask-type="alpha" maskUnits="userSpaceOnUse" x="0" y="0" width="200" height="200">
<rect width="200" height="200" rx="100" fill="#101721"/>
</mask>
<g mask="url(#mask0)">
<rect width="200" height="200" rx="100" fill="#0E1216"/>
<rect x="4.53613" y="50.7149" width="46.5358" height="46.5358" rx="23.2679" fill="#7A031F"/>
<rect x="-0.362293" y="45.8164" width="57.1493" height="57.1493" rx="28.5746" stroke="#7A031F" stroke-width="1.63284"/>
<rect x="-34.6523" y="115.212" width="127.361" height="114.299" rx="57.1493" fill="#7A031F"/>
<rect x="-41.1836" y="107.864" width="142.057" height="127.319" rx="63.6597" stroke="#7A031F" stroke-width="1.63284"/>
<rect x="144.536" y="50.7149" width="46.5358" height="46.5358" rx="23.2679" fill="#7A031F"/>
<rect x="139.638" y="45.8164" width="57.1493" height="57.1493" rx="28.5746" stroke="#7A031F" stroke-width="1.63284"/>
<rect x="105.348" y="115.212" width="127.361" height="114.299" rx="57.1493" fill="#7A031F"/>
<rect x="98.8164" y="107.864" width="142.057" height="127.319" rx="63.6597" stroke="#7A031F" stroke-width="1.63284"/>
<rect x="72" y="32" width="57" height="57" rx="28.5" fill="#FF023F"/>
<rect x="66" y="26" width="70" height="70" rx="35" stroke="#FF023F" stroke-width="2"/>
<rect x="24" y="111" width="156" height="140" rx="70" fill="#FF023F"/>
<rect x="16" y="102" width="174" height="155.949" rx="77.9744" stroke="#FF023F" stroke-width="2"/>
</g>
</svg>
