<svg width="240" height="96" viewBox="0 0 240 96" fill="none" xmlns="http://www.w3.org/2000/svg">
<g filter="url(#filter0_d)">
<path d="M59.736 28.88C57.24 28.88 55.992 27.792 55.992 25.616C55.992 22.288 57.848 19.152 61.56 16.208C65.272 13.264 69.688 10.864 74.808 9.008C74.36 7.152 73.208 5.744 71.352 4.784C69.496 3.76 67.192 3.248 64.44 3.248C61.752 3.248 58.936 3.76 55.992 4.784C53.112 5.808 50.36 7.28 47.736 9.2C45.176 11.056 43.064 13.552 41.4 16.688C39.8 19.76 39 23.152 39 26.864C39 28.144 39.96 31.888 41.88 38.096C43.8 44.304 44.76 49.456 44.76 53.552C44.76 54.576 44.632 56.048 44.376 57.968C46.808 57.712 48.568 57.584 49.656 57.584C55.864 57.584 58.968 59.216 58.968 62.48C58.968 63.632 58.616 64.592 57.912 65.36C57.208 66.128 56.024 67.024 54.36 68.048C53.848 67.728 53.592 67.44 53.592 67.184C53.592 66.928 53.72 66.704 53.976 66.512C55.896 65.424 56.856 64.336 56.856 63.248C56.856 61.072 54.328 59.984 49.272 59.984C47.416 59.984 45.624 60.112 43.896 60.368C42.808 64.464 40.76 68.304 37.752 71.888C34.808 75.408 31.512 78.256 27.864 80.432C24.216 82.672 20.536 84.4 16.824 85.616C13.176 86.832 9.944 87.44 7.128 87.44C2.776 87.44 0.599999 86.16 0.599999 83.6C0.599999 80.016 2.84 76.4 7.32 72.752C11.8 69.104 17.112 66.064 23.256 63.632C29.464 61.136 35.544 59.376 41.496 58.352C41.752 56.56 41.88 55.12 41.88 54.032C41.88 51.28 40.856 46.992 38.808 41.168C36.824 35.28 35.832 30.224 35.832 26C35.832 21.776 37.496 17.584 40.824 13.424C44.152 9.2 48.088 5.968 52.632 3.72799C57.24 1.488 61.592 0.367998 65.688 0.367998C72.152 0.367998 75.704 3.088 76.344 8.528C79.928 7.376 82.36 6.8 83.64 6.8C84.92 6.8 85.592 6.864 85.656 6.992C85.784 7.056 85.848 7.408 85.848 8.048C85.848 8.688 85.56 9.104 84.984 9.296C82.104 9.424 79.256 9.84 76.44 10.544C76.312 15.728 74.36 20.08 70.584 23.6C66.808 27.12 63.192 28.88 59.736 28.88ZM4.344 81.2C4.344 83.056 6.2 83.984 9.912 83.984C15.096 83.984 20.888 82.128 27.288 78.416C30.424 76.624 33.24 74.192 35.736 71.12C38.296 67.984 40.056 64.528 41.016 60.752C35.576 61.648 30.104 63.088 24.6 65.072C19.16 67.056 14.424 69.52 10.392 72.464C6.36 75.344 4.344 78.256 4.344 81.2ZM59.064 25.04C59.064 26.256 59.704 26.864 60.984 26.864C63.416 26.864 66.328 25.232 69.72 21.968C73.176 18.64 74.936 14.992 75 11.024C70.52 12.432 66.744 14.384 63.672 16.88C60.6 19.376 59.064 22.096 59.064 25.04ZM71.4555 71.312C74.5275 70.032 77.8235 68.304 81.3435 66.128L83.1675 64.976C83.2315 65.104 83.2635 65.36 83.2635 65.744C83.2635 66.128 82.9755 66.448 82.3995 66.704C79.0075 69.008 75.6155 71.024 72.2235 72.752C68.8315 74.48 65.6955 75.344 62.8155 75.344C59.1675 75.344 57.3435 74.032 57.3435 71.408C57.3435 68.272 59.5195 64.752 63.8715 60.848C68.2875 56.88 72.6395 54.896 76.9275 54.896C78.7195 54.896 79.6155 55.664 79.6155 57.2C79.6155 58.096 78.8155 59.216 77.2155 60.56C74.9755 62.416 73.5675 63.344 72.9915 63.344C72.4155 63.344 72.1275 63.088 72.1275 62.576C72.1275 62.384 72.2555 62.192 72.5115 62C73.1515 61.616 73.8555 61.04 74.6235 60.272C75.4555 59.44 75.8715 58.736 75.8715 58.16C75.8715 57.264 75.4555 56.816 74.6235 56.816C72.8315 56.816 70.2075 58.448 66.7515 61.712C63.2955 64.912 61.5675 67.504 61.5675 69.488C61.5675 71.728 62.7835 72.848 65.2155 72.848C66.8155 72.848 68.5755 72.464 70.4955 71.696L71.4555 71.312ZM81.8798 72.752C82.4558 72.752 85.6558 70.224 91.4798 65.168C97.3678 60.048 100.824 57.488 101.848 57.488C102.872 57.488 103.384 57.936 103.384 58.832C103.384 59.536 102.744 60.624 101.464 62.096C100.184 63.568 98.9038 65.168 97.6238 66.896C96.4078 68.624 95.7998 70.16 95.7998 71.504C95.7998 72.208 96.3118 72.56 97.3358 72.56C98.4238 72.56 100.312 71.952 103 70.736C105.688 69.456 108.056 68.176 110.104 66.896L113.176 64.976C113.24 65.104 113.272 65.36 113.272 65.744C113.272 66.128 112.984 66.448 112.408 66.704C103.768 72.592 97.7518 75.536 94.3598 75.536C92.6958 75.536 91.8638 74.64 91.8638 72.848C91.8638 71.632 92.3118 70.16 93.2078 68.432C94.1038 66.704 94.9998 65.264 95.8958 64.112L97.1438 62.384C94.2638 64.56 91.2878 67.024 88.2158 69.776C85.1438 72.464 82.8078 74.48 81.2078 75.824C79.6077 77.232 78.4877 77.936 77.8477 77.936C77.2077 77.936 76.8877 77.456 76.8877 76.496C76.8877 75.6 78.3917 72.4 81.3998 66.896C84.4078 61.392 87.8638 55.472 91.7678 49.136C95.7358 42.736 99.8638 36.944 104.152 31.76C108.504 26.576 111.8 23.984 114.04 23.984C115 23.984 115.672 24.432 116.056 25.328C116.248 25.648 116.344 26.032 116.344 26.48C116.344 30.896 109.72 39.376 96.4718 51.92C93.9758 54.352 91.5438 56.592 89.1758 58.64C84.3118 66.832 81.8798 71.536 81.8798 72.752ZM113.176 27.536C113.176 26.896 113.016 26.576 112.696 26.576C111.416 26.576 108.728 29.392 104.632 35.024C100.536 40.656 96.1838 47.216 91.5758 54.704C105.976 41.584 113.176 32.528 113.176 27.536ZM131.651 67.28C129.667 68.496 127.363 69.104 124.739 69.104H123.587C121.859 71.088 120.003 72.72 118.019 74C116.099 75.216 114.435 75.824 113.027 75.824C111.043 75.824 110.051 74.544 110.051 71.984C110.051 69.424 111.427 66.448 114.179 63.056C113.923 62.352 113.795 61.488 113.795 60.464C113.795 58.224 114.755 56.304 116.675 54.704C118.659 53.04 120.579 52.208 122.435 52.208C126.339 52.208 128.291 54.32 128.291 58.544C128.291 61.36 127.075 64.432 124.643 67.76H125.795C127.843 67.76 129.603 67.28 131.075 66.32C131.267 66.128 131.523 66.032 131.843 66.032C132.163 66.032 132.323 66.16 132.323 66.416C132.323 66.608 132.099 66.896 131.651 67.28ZM122.435 56.24C122.755 56.112 123.011 56.048 123.203 56.048C123.395 56.048 123.491 56.208 123.491 56.528C123.491 56.784 123.139 57.168 122.435 57.68C119.875 59.664 117.955 61.456 116.675 63.056C118.083 65.296 120.227 66.768 123.107 67.472C125.603 64.528 126.851 61.776 126.851 59.216C126.851 57.744 126.371 56.624 125.411 55.856C124.451 55.088 123.203 54.704 121.667 54.704C120.195 54.704 118.819 55.152 117.539 56.048C116.259 56.88 115.619 57.808 115.619 58.832C115.619 59.792 115.715 60.56 115.907 61.136C117.891 59.088 120.067 57.456 122.435 56.24ZM115.331 65.168C114.307 66.896 113.795 68.816 113.795 70.928C113.795 72.08 114.307 72.656 115.331 72.656C117.059 72.656 119.203 71.376 121.763 68.816C118.883 68.304 116.739 67.088 115.331 65.168ZM151.526 67.28C149.542 68.496 147.238 69.104 144.614 69.104H143.462C141.734 71.088 139.878 72.72 137.894 74C135.974 75.216 134.31 75.824 132.902 75.824C130.918 75.824 129.926 74.544 129.926 71.984C129.926 69.424 131.302 66.448 134.054 63.056C133.798 62.352 133.67 61.488 133.67 60.464C133.67 58.224 134.63 56.304 136.55 54.704C138.534 53.04 140.454 52.208 142.31 52.208C146.214 52.208 148.166 54.32 148.166 58.544C148.166 61.36 146.95 64.432 144.518 67.76H145.67C147.718 67.76 149.478 67.28 150.95 66.32C151.142 66.128 151.398 66.032 151.718 66.032C152.038 66.032 152.198 66.16 152.198 66.416C152.198 66.608 151.974 66.896 151.526 67.28ZM142.31 56.24C142.63 56.112 142.886 56.048 143.078 56.048C143.27 56.048 143.366 56.208 143.366 56.528C143.366 56.784 143.014 57.168 142.31 57.68C139.75 59.664 137.83 61.456 136.55 63.056C137.958 65.296 140.102 66.768 142.982 67.472C145.478 64.528 146.726 61.776 146.726 59.216C146.726 57.744 146.246 56.624 145.286 55.856C144.326 55.088 143.078 54.704 141.542 54.704C140.07 54.704 138.694 55.152 137.414 56.048C136.134 56.88 135.494 57.808 135.494 58.832C135.494 59.792 135.59 60.56 135.782 61.136C137.766 59.088 139.942 57.456 142.31 56.24ZM135.206 65.168C134.182 66.896 133.67 68.816 133.67 70.928C133.67 72.08 134.182 72.656 135.206 72.656C136.934 72.656 139.078 71.376 141.638 68.816C138.758 68.304 136.614 67.088 135.206 65.168ZM155.686 75.536C152.806 75.536 151.366 73.968 151.366 70.832C151.366 66.672 153.606 60.72 158.086 52.976C162.63 45.168 167.782 38.192 173.542 32.048C179.366 25.84 183.942 22.736 187.27 22.736C188.486 22.736 189.094 23.6 189.094 25.328C189.094 28.016 186.822 32.4 182.278 38.48C177.798 44.56 172.966 50.256 167.782 55.568C162.598 60.88 158.598 64.528 155.782 66.512C155.654 67.536 155.59 68.24 155.59 68.624C155.59 68.944 155.622 69.328 155.686 69.776C155.75 70.224 156.006 70.8 156.454 71.504C156.902 72.208 157.638 72.56 158.662 72.56C159.75 72.56 161.638 71.952 164.326 70.736C167.014 69.456 169.382 68.176 171.43 66.896L174.502 64.976C174.566 65.104 174.598 65.36 174.598 65.744C174.598 66.128 174.31 66.448 173.734 66.704C165.094 72.592 159.078 75.536 155.686 75.536ZM185.638 27.632C185.574 26.224 185.158 25.52 184.39 25.52C182.406 25.52 179.398 27.76 175.366 32.24C171.334 36.72 167.43 42.096 163.654 48.368C159.878 54.576 157.414 59.92 156.262 64.4C158.95 62.224 162.406 59.024 166.63 54.8C170.854 50.576 175.014 45.744 179.11 40.304C183.206 34.864 185.382 30.64 185.638 27.632Z" fill="#A9A9A9"/>

</g>
<defs>
<filter id="filter0_d" x="0.599609" y="0.368011" width="239.372" height="95.072" filterUnits="userSpaceOnUse" color-interpolation-filters="sRGB">
<feFlood flood-opacity="0" result="BackgroundImageFix"/>
<feColorMatrix in="SourceAlpha" type="matrix" values="0 0 0 0 0 0 0 0 0 0 0 0 0 0 0 0 0 0 127 0"/>
<feOffset dy="4"/>
<feGaussianBlur stdDeviation="2"/>
<feColorMatrix type="matrix" values="0 0 0 0 0 0 0 0 0 0 0 0 0 0 0 0 0 0 0.25 0"/>
<feBlend mode="normal" in2="BackgroundImageFix" result="effect1_dropShadow"/>
<feBlend mode="normal" in="SourceGraphic" in2="effect1_dropShadow" result="shape"/>
</filter>
</defs>
</svg>
